<?xml version="1.0" encoding="utf-8" standalone="no"?>
<!DOCTYPE svg PUBLIC "-//W3C//DTD SVG 1.1//EN"
  "http://www.w3.org/Graphics/SVG/1.1/DTD/svg11.dtd">
<svg xmlns:xlink="http://www.w3.org/1999/xlink" width="1671.84pt" height="687.6pt" viewBox="0 0 1671.84 687.6" xmlns="http://www.w3.org/2000/svg" version="1.1">
 <metadata>
  <rdf:RDF xmlns:dc="http://purl.org/dc/elements/1.1/" xmlns:cc="http://creativecommons.org/ns#" xmlns:rdf="http://www.w3.org/1999/02/22-rdf-syntax-ns#">
   <cc:Work>
    <dc:type rdf:resource="http://purl.org/dc/dcmitype/StillImage"/>
    <dc:date>2024-08-13T05:18:57.691252</dc:date>
    <dc:format>image/svg+xml</dc:format>
    <dc:creator>
     <cc:Agent>
      <dc:title>Matplotlib v3.9.1.post1, https://matplotlib.org/</dc:title>
     </cc:Agent>
    </dc:creator>
   </cc:Work>
  </rdf:RDF>
 </metadata>
 <defs>
  <style type="text/css">*{stroke-linejoin: round; stroke-linecap: butt}</style>
 </defs>
 <g id="figure_1">
  <g id="patch_1">
   <path d="M 0 687.6 
L 1671.84 687.6 
L 1671.84 0 
L 0 0 
z
" style="fill: #ffffff"/>
  </g>
  <g id="axes_1">
   <g id="patch_2">
    <path d="M 89.562857 611.964 
L 1586.257714 611.964 
L 1586.257714 53.207143 
L 89.562857 53.207143 
z
" style="fill: #ffffff"/>
   </g>
   <g id="matplotlib.axis_1">
    <g id="xtick_1">
     <g id="line2d_1">
      <path d="M 215.411652 611.964 
L 215.411652 53.207143 
" clip-path="url(#pc5b8208fe8)" style="fill: none; stroke-dasharray: 1.85,0.8; stroke-dashoffset: 0; stroke: #b0b0b0; stroke-width: 0.5"/>
     </g>
     <g id="line2d_2">
      <defs>
       <path id="m6c383b022b" d="M 0 0 
L 0 3.5 
" style="stroke: #000000; stroke-width: 0.8"/>
      </defs>
      <g>
       <use xlink:href="#m6c383b022b" x="215.411652" y="611.964" style="stroke: #000000; stroke-width: 0.8"/>
      </g>
     </g>
     <g id="text_1">
      <!-- 14:20 -->
      <g transform="translate(201.002277 626.562437) scale(0.1 -0.1)">
       <defs>
        <path id="DejaVuSans-31" d="M 794 531 
L 1825 531 
L 1825 4091 
L 703 3866 
L 703 4441 
L 1819 4666 
L 2450 4666 
L 2450 531 
L 3481 531 
L 3481 0 
L 794 0 
L 794 531 
z
" transform="scale(0.015625)"/>
        <path id="DejaVuSans-34" d="M 2419 4116 
L 825 1625 
L 2419 1625 
L 2419 4116 
z
M 2253 4666 
L 3047 4666 
L 3047 1625 
L 3713 1625 
L 3713 1100 
L 3047 1100 
L 3047 0 
L 2419 0 
L 2419 1100 
L 313 1100 
L 313 1709 
L 2253 4666 
z
" transform="scale(0.015625)"/>
        <path id="DejaVuSans-3a" d="M 750 794 
L 1409 794 
L 1409 0 
L 750 0 
L 750 794 
z
M 750 3309 
L 1409 3309 
L 1409 2516 
L 750 2516 
L 750 3309 
z
" transform="scale(0.015625)"/>
        <path id="DejaVuSans-32" d="M 1228 531 
L 3431 531 
L 3431 0 
L 469 0 
L 469 531 
Q 828 903 1448 1529 
Q 2069 2156 2228 2338 
Q 2531 2678 2651 2914 
Q 2772 3150 2772 3378 
Q 2772 3750 2511 3984 
Q 2250 4219 1831 4219 
Q 1534 4219 1204 4116 
Q 875 4013 500 3803 
L 500 4441 
Q 881 4594 1212 4672 
Q 1544 4750 1819 4750 
Q 2544 4750 2975 4387 
Q 3406 4025 3406 3419 
Q 3406 3131 3298 2873 
Q 3191 2616 2906 2266 
Q 2828 2175 2409 1742 
Q 1991 1309 1228 531 
z
" transform="scale(0.015625)"/>
        <path id="DejaVuSans-30" d="M 2034 4250 
Q 1547 4250 1301 3770 
Q 1056 3291 1056 2328 
Q 1056 1369 1301 889 
Q 1547 409 2034 409 
Q 2525 409 2770 889 
Q 3016 1369 3016 2328 
Q 3016 3291 2770 3770 
Q 2525 4250 2034 4250 
z
M 2034 4750 
Q 2819 4750 3233 4129 
Q 3647 3509 3647 2328 
Q 3647 1150 3233 529 
Q 2819 -91 2034 -91 
Q 1250 -91 836 529 
Q 422 1150 422 2328 
Q 422 3509 836 4129 
Q 1250 4750 2034 4750 
z
" transform="scale(0.015625)"/>
       </defs>
       <use xlink:href="#DejaVuSans-31"/>
       <use xlink:href="#DejaVuSans-34" x="63.623047"/>
       <use xlink:href="#DejaVuSans-3a" x="127.246094"/>
       <use xlink:href="#DejaVuSans-32" x="160.9375"/>
       <use xlink:href="#DejaVuSans-30" x="224.560547"/>
      </g>
     </g>
    </g>
    <g id="xtick_2">
     <g id="line2d_3">
      <path d="M 380.603682 611.964 
L 380.603682 53.207143 
" clip-path="url(#pc5b8208fe8)" style="fill: none; stroke-dasharray: 1.85,0.8; stroke-dashoffset: 0; stroke: #b0b0b0; stroke-width: 0.5"/>
     </g>
     <g id="line2d_4">
      <g>
       <use xlink:href="#m6c383b022b" x="380.603682" y="611.964" style="stroke: #000000; stroke-width: 0.8"/>
      </g>
     </g>
     <g id="text_2">
      <!-- 14:25 -->
      <g transform="translate(366.194307 626.562437) scale(0.1 -0.1)">
       <defs>
        <path id="DejaVuSans-35" d="M 691 4666 
L 3169 4666 
L 3169 4134 
L 1269 4134 
L 1269 2991 
Q 1406 3038 1543 3061 
Q 1681 3084 1819 3084 
Q 2600 3084 3056 2656 
Q 3513 2228 3513 1497 
Q 3513 744 3044 326 
Q 2575 -91 1722 -91 
Q 1428 -91 1123 -41 
Q 819 9 494 109 
L 494 744 
Q 775 591 1075 516 
Q 1375 441 1709 441 
Q 2250 441 2565 725 
Q 2881 1009 2881 1497 
Q 2881 1984 2565 2268 
Q 2250 2553 1709 2553 
Q 1456 2553 1204 2497 
Q 953 2441 691 2322 
L 691 4666 
z
" transform="scale(0.015625)"/>
       </defs>
       <use xlink:href="#DejaVuSans-31"/>
       <use xlink:href="#DejaVuSans-34" x="63.623047"/>
       <use xlink:href="#DejaVuSans-3a" x="127.246094"/>
       <use xlink:href="#DejaVuSans-32" x="160.9375"/>
       <use xlink:href="#DejaVuSans-35" x="224.560547"/>
      </g>
     </g>
    </g>
    <g id="xtick_3">
     <g id="line2d_5">
      <path d="M 545.795712 611.964 
L 545.795712 53.207143 
" clip-path="url(#pc5b8208fe8)" style="fill: none; stroke-dasharray: 1.85,0.8; stroke-dashoffset: 0; stroke: #b0b0b0; stroke-width: 0.5"/>
     </g>
     <g id="line2d_6">
      <g>
       <use xlink:href="#m6c383b022b" x="545.795712" y="611.964" style="stroke: #000000; stroke-width: 0.8"/>
      </g>
     </g>
     <g id="text_3">
      <!-- 14:30 -->
      <g transform="translate(531.386337 626.562437) scale(0.1 -0.1)">
       <defs>
        <path id="DejaVuSans-33" d="M 2597 2516 
Q 3050 2419 3304 2112 
Q 3559 1806 3559 1356 
Q 3559 666 3084 287 
Q 2609 -91 1734 -91 
Q 1441 -91 1130 -33 
Q 819 25 488 141 
L 488 750 
Q 750 597 1062 519 
Q 1375 441 1716 441 
Q 2309 441 2620 675 
Q 2931 909 2931 1356 
Q 2931 1769 2642 2001 
Q 2353 2234 1838 2234 
L 1294 2234 
L 1294 2753 
L 1863 2753 
Q 2328 2753 2575 2939 
Q 2822 3125 2822 3475 
Q 2822 3834 2567 4026 
Q 2313 4219 1838 4219 
Q 1578 4219 1281 4162 
Q 984 4106 628 3988 
L 628 4550 
Q 988 4650 1302 4700 
Q 1616 4750 1894 4750 
Q 2613 4750 3031 4423 
Q 3450 4097 3450 3541 
Q 3450 3153 3228 2886 
Q 3006 2619 2597 2516 
z
" transform="scale(0.015625)"/>
       </defs>
       <use xlink:href="#DejaVuSans-31"/>
       <use xlink:href="#DejaVuSans-34" x="63.623047"/>
       <use xlink:href="#DejaVuSans-3a" x="127.246094"/>
       <use xlink:href="#DejaVuSans-33" x="160.9375"/>
       <use xlink:href="#DejaVuSans-30" x="224.560547"/>
      </g>
     </g>
    </g>
    <g id="xtick_4">
     <g id="line2d_7">
      <path d="M 710.987743 611.964 
L 710.987743 53.207143 
" clip-path="url(#pc5b8208fe8)" style="fill: none; stroke-dasharray: 1.85,0.8; stroke-dashoffset: 0; stroke: #b0b0b0; stroke-width: 0.5"/>
     </g>
     <g id="line2d_8">
      <g>
       <use xlink:href="#m6c383b022b" x="710.987743" y="611.964" style="stroke: #000000; stroke-width: 0.8"/>
      </g>
     </g>
     <g id="text_4">
      <!-- 14:35 -->
      <g transform="translate(696.578368 626.562437) scale(0.1 -0.1)">
       <use xlink:href="#DejaVuSans-31"/>
       <use xlink:href="#DejaVuSans-34" x="63.623047"/>
       <use xlink:href="#DejaVuSans-3a" x="127.246094"/>
       <use xlink:href="#DejaVuSans-33" x="160.9375"/>
       <use xlink:href="#DejaVuSans-35" x="224.560547"/>
      </g>
     </g>
    </g>
    <g id="xtick_5">
     <g id="line2d_9">
      <path d="M 876.179773 611.964 
L 876.179773 53.207143 
" clip-path="url(#pc5b8208fe8)" style="fill: none; stroke-dasharray: 1.85,0.8; stroke-dashoffset: 0; stroke: #b0b0b0; stroke-width: 0.5"/>
     </g>
     <g id="line2d_10">
      <g>
       <use xlink:href="#m6c383b022b" x="876.179773" y="611.964" style="stroke: #000000; stroke-width: 0.8"/>
      </g>
     </g>
     <g id="text_5">
      <!-- 14:40 -->
      <g transform="translate(861.770398 626.562437) scale(0.1 -0.1)">
       <use xlink:href="#DejaVuSans-31"/>
       <use xlink:href="#DejaVuSans-34" x="63.623047"/>
       <use xlink:href="#DejaVuSans-3a" x="127.246094"/>
       <use xlink:href="#DejaVuSans-34" x="160.9375"/>
       <use xlink:href="#DejaVuSans-30" x="224.560547"/>
      </g>
     </g>
    </g>
    <g id="xtick_6">
     <g id="line2d_11">
      <path d="M 1041.371803 611.964 
L 1041.371803 53.207143 
" clip-path="url(#pc5b8208fe8)" style="fill: none; stroke-dasharray: 1.85,0.8; stroke-dashoffset: 0; stroke: #b0b0b0; stroke-width: 0.5"/>
     </g>
     <g id="line2d_12">
      <g>
       <use xlink:href="#m6c383b022b" x="1041.371803" y="611.964" style="stroke: #000000; stroke-width: 0.8"/>
      </g>
     </g>
     <g id="text_6">
      <!-- 14:45 -->
      <g transform="translate(1026.962428 626.562437) scale(0.1 -0.1)">
       <use xlink:href="#DejaVuSans-31"/>
       <use xlink:href="#DejaVuSans-34" x="63.623047"/>
       <use xlink:href="#DejaVuSans-3a" x="127.246094"/>
       <use xlink:href="#DejaVuSans-34" x="160.9375"/>
       <use xlink:href="#DejaVuSans-35" x="224.560547"/>
      </g>
     </g>
    </g>
    <g id="xtick_7">
     <g id="line2d_13">
      <path d="M 1206.563833 611.964 
L 1206.563833 53.207143 
" clip-path="url(#pc5b8208fe8)" style="fill: none; stroke-dasharray: 1.85,0.8; stroke-dashoffset: 0; stroke: #b0b0b0; stroke-width: 0.5"/>
     </g>
     <g id="line2d_14">
      <g>
       <use xlink:href="#m6c383b022b" x="1206.563833" y="611.964" style="stroke: #000000; stroke-width: 0.8"/>
      </g>
     </g>
     <g id="text_7">
      <!-- 14:50 -->
      <g transform="translate(1192.154458 626.562437) scale(0.1 -0.1)">
       <use xlink:href="#DejaVuSans-31"/>
       <use xlink:href="#DejaVuSans-34" x="63.623047"/>
       <use xlink:href="#DejaVuSans-3a" x="127.246094"/>
       <use xlink:href="#DejaVuSans-35" x="160.9375"/>
       <use xlink:href="#DejaVuSans-30" x="224.560547"/>
      </g>
     </g>
    </g>
    <g id="xtick_8">
     <g id="line2d_15">
      <path d="M 1371.755863 611.964 
L 1371.755863 53.207143 
" clip-path="url(#pc5b8208fe8)" style="fill: none; stroke-dasharray: 1.85,0.8; stroke-dashoffset: 0; stroke: #b0b0b0; stroke-width: 0.5"/>
     </g>
     <g id="line2d_16">
      <g>
       <use xlink:href="#m6c383b022b" x="1371.755863" y="611.964" style="stroke: #000000; stroke-width: 0.8"/>
      </g>
     </g>
     <g id="text_8">
      <!-- 14:55 -->
      <g transform="translate(1357.346488 626.562437) scale(0.1 -0.1)">
       <use xlink:href="#DejaVuSans-31"/>
       <use xlink:href="#DejaVuSans-34" x="63.623047"/>
       <use xlink:href="#DejaVuSans-3a" x="127.246094"/>
       <use xlink:href="#DejaVuSans-35" x="160.9375"/>
       <use xlink:href="#DejaVuSans-35" x="224.560547"/>
      </g>
     </g>
    </g>
    <g id="xtick_9">
     <g id="line2d_17">
      <path d="M 1536.947893 611.964 
L 1536.947893 53.207143 
" clip-path="url(#pc5b8208fe8)" style="fill: none; stroke-dasharray: 1.85,0.8; stroke-dashoffset: 0; stroke: #b0b0b0; stroke-width: 0.5"/>
     </g>
     <g id="line2d_18">
      <g>
       <use xlink:href="#m6c383b022b" x="1536.947893" y="611.964" style="stroke: #000000; stroke-width: 0.8"/>
      </g>
     </g>
     <g id="text_9">
      <!-- 15:00 -->
      <g transform="translate(1522.538518 626.562437) scale(0.1 -0.1)">
       <use xlink:href="#DejaVuSans-31"/>
       <use xlink:href="#DejaVuSans-35" x="63.623047"/>
       <use xlink:href="#DejaVuSans-3a" x="127.246094"/>
       <use xlink:href="#DejaVuSans-30" x="160.9375"/>
       <use xlink:href="#DejaVuSans-30" x="224.560547"/>
      </g>
     </g>
    </g>
    <g id="text_10">
     <!-- Time -->
     <g transform="translate(825.676692 651.240563) scale(0.1 -0.1)">
      <defs>
       <path id="DejaVuSans-54" d="M -19 4666 
L 3928 4666 
L 3928 4134 
L 2272 4134 
L 2272 0 
L 1638 0 
L 1638 4134 
L -19 4134 
L -19 4666 
z
" transform="scale(0.015625)"/>
       <path id="DejaVuSans-69" d="M 603 3500 
L 1178 3500 
L 1178 0 
L 603 0 
L 603 3500 
z
M 603 4863 
L 1178 4863 
L 1178 4134 
L 603 4134 
L 603 4863 
z
" transform="scale(0.015625)"/>
       <path id="DejaVuSans-6d" d="M 3328 2828 
Q 3544 3216 3844 3400 
Q 4144 3584 4550 3584 
Q 5097 3584 5394 3201 
Q 5691 2819 5691 2113 
L 5691 0 
L 5113 0 
L 5113 2094 
Q 5113 2597 4934 2840 
Q 4756 3084 4391 3084 
Q 3944 3084 3684 2787 
Q 3425 2491 3425 1978 
L 3425 0 
L 2847 0 
L 2847 2094 
Q 2847 2600 2669 2842 
Q 2491 3084 2119 3084 
Q 1678 3084 1418 2786 
Q 1159 2488 1159 1978 
L 1159 0 
L 581 0 
L 581 3500 
L 1159 3500 
L 1159 2956 
Q 1356 3278 1631 3431 
Q 1906 3584 2284 3584 
Q 2666 3584 2933 3390 
Q 3200 3197 3328 2828 
z
" transform="scale(0.015625)"/>
       <path id="DejaVuSans-65" d="M 3597 1894 
L 3597 1613 
L 953 1613 
Q 991 1019 1311 708 
Q 1631 397 2203 397 
Q 2534 397 2845 478 
Q 3156 559 3463 722 
L 3463 178 
Q 3153 47 2828 -22 
Q 2503 -91 2169 -91 
Q 1331 -91 842 396 
Q 353 884 353 1716 
Q 353 2575 817 3079 
Q 1281 3584 2069 3584 
Q 2775 3584 3186 3129 
Q 3597 2675 3597 1894 
z
M 3022 2063 
Q 3016 2534 2758 2815 
Q 2500 3097 2075 3097 
Q 1594 3097 1305 2825 
Q 1016 2553 972 2059 
L 3022 2063 
z
" transform="scale(0.015625)"/>
      </defs>
      <use xlink:href="#DejaVuSans-54"/>
      <use xlink:href="#DejaVuSans-69" x="57.958984"/>
      <use xlink:href="#DejaVuSans-6d" x="85.742188"/>
      <use xlink:href="#DejaVuSans-65" x="183.154297"/>
     </g>
    </g>
    <g id="text_11">
     <!-- 2024-08-05 -->
     <g transform="translate(1528.142089 639.240563) scale(0.1 -0.1)">
      <defs>
       <path id="DejaVuSans-2d" d="M 313 2009 
L 1997 2009 
L 1997 1497 
L 313 1497 
L 313 2009 
z
" transform="scale(0.015625)"/>
       <path id="DejaVuSans-38" d="M 2034 2216 
Q 1584 2216 1326 1975 
Q 1069 1734 1069 1313 
Q 1069 891 1326 650 
Q 1584 409 2034 409 
Q 2484 409 2743 651 
Q 3003 894 3003 1313 
Q 3003 1734 2745 1975 
Q 2488 2216 2034 2216 
z
M 1403 2484 
Q 997 2584 770 2862 
Q 544 3141 544 3541 
Q 544 4100 942 4425 
Q 1341 4750 2034 4750 
Q 2731 4750 3128 4425 
Q 3525 4100 3525 3541 
Q 3525 3141 3298 2862 
Q 3072 2584 2669 2484 
Q 3125 2378 3379 2068 
Q 3634 1759 3634 1313 
Q 3634 634 3220 271 
Q 2806 -91 2034 -91 
Q 1263 -91 848 271 
Q 434 634 434 1313 
Q 434 1759 690 2068 
Q 947 2378 1403 2484 
z
M 1172 3481 
Q 1172 3119 1398 2916 
Q 1625 2713 2034 2713 
Q 2441 2713 2670 2916 
Q 2900 3119 2900 3481 
Q 2900 3844 2670 4047 
Q 2441 4250 2034 4250 
Q 1625 4250 1398 4047 
Q 1172 3844 1172 3481 
z
" transform="scale(0.015625)"/>
      </defs>
      <use xlink:href="#DejaVuSans-32"/>
      <use xlink:href="#DejaVuSans-30" x="63.623047"/>
      <use xlink:href="#DejaVuSans-32" x="127.246094"/>
      <use xlink:href="#DejaVuSans-34" x="190.869141"/>
      <use xlink:href="#DejaVuSans-2d" x="254.492188"/>
      <use xlink:href="#DejaVuSans-30" x="290.576172"/>
      <use xlink:href="#DejaVuSans-38" x="354.199219"/>
      <use xlink:href="#DejaVuSans-2d" x="417.822266"/>
      <use xlink:href="#DejaVuSans-30" x="453.90625"/>
      <use xlink:href="#DejaVuSans-35" x="517.529297"/>
     </g>
    </g>
   </g>
   <g id="matplotlib.axis_2">
    <g id="ytick_1">
     <g id="line2d_19">
      <path d="M 89.562857 600.294631 
L 1586.257714 600.294631 
" clip-path="url(#pc5b8208fe8)" style="fill: none; stroke-dasharray: 1.85,0.8; stroke-dashoffset: 0; stroke: #b0b0b0; stroke-width: 0.5"/>
     </g>
     <g id="line2d_20">
      <defs>
       <path id="mfa887b487f" d="M 0 0 
L -3.5 0 
" style="stroke: #000000; stroke-width: 0.8"/>
      </defs>
      <g>
       <use xlink:href="#mfa887b487f" x="89.562857" y="600.294631" style="stroke: #000000; stroke-width: 0.8"/>
      </g>
     </g>
     <g id="text_12">
      <!-- 60 -->
      <g transform="translate(69.837857 604.093849) scale(0.1 -0.1)">
       <defs>
        <path id="DejaVuSans-36" d="M 2113 2584 
Q 1688 2584 1439 2293 
Q 1191 2003 1191 1497 
Q 1191 994 1439 701 
Q 1688 409 2113 409 
Q 2538 409 2786 701 
Q 3034 994 3034 1497 
Q 3034 2003 2786 2293 
Q 2538 2584 2113 2584 
z
M 3366 4563 
L 3366 3988 
Q 3128 4100 2886 4159 
Q 2644 4219 2406 4219 
Q 1781 4219 1451 3797 
Q 1122 3375 1075 2522 
Q 1259 2794 1537 2939 
Q 1816 3084 2150 3084 
Q 2853 3084 3261 2657 
Q 3669 2231 3669 1497 
Q 3669 778 3244 343 
Q 2819 -91 2113 -91 
Q 1303 -91 875 529 
Q 447 1150 447 2328 
Q 447 3434 972 4092 
Q 1497 4750 2381 4750 
Q 2619 4750 2861 4703 
Q 3103 4656 3366 4563 
z
" transform="scale(0.015625)"/>
       </defs>
       <use xlink:href="#DejaVuSans-36"/>
       <use xlink:href="#DejaVuSans-30" x="63.623047"/>
      </g>
     </g>
    </g>
    <g id="ytick_2">
     <g id="line2d_21">
      <path d="M 89.562857 531.651282 
L 1586.257714 531.651282 
" clip-path="url(#pc5b8208fe8)" style="fill: none; stroke-dasharray: 1.85,0.8; stroke-dashoffset: 0; stroke: #b0b0b0; stroke-width: 0.5"/>
     </g>
     <g id="line2d_22">
      <g>
       <use xlink:href="#mfa887b487f" x="89.562857" y="531.651282" style="stroke: #000000; stroke-width: 0.8"/>
      </g>
     </g>
     <g id="text_13">
      <!-- 75 -->
      <g transform="translate(69.837857 535.450501) scale(0.1 -0.1)">
       <defs>
        <path id="DejaVuSans-37" d="M 525 4666 
L 3525 4666 
L 3525 4397 
L 1831 0 
L 1172 0 
L 2766 4134 
L 525 4134 
L 525 4666 
z
" transform="scale(0.015625)"/>
       </defs>
       <use xlink:href="#DejaVuSans-37"/>
       <use xlink:href="#DejaVuSans-35" x="63.623047"/>
      </g>
     </g>
    </g>
    <g id="ytick_3">
     <g id="line2d_23">
      <path d="M 89.562857 463.007934 
L 1586.257714 463.007934 
" clip-path="url(#pc5b8208fe8)" style="fill: none; stroke-dasharray: 1.85,0.8; stroke-dashoffset: 0; stroke: #b0b0b0; stroke-width: 0.5"/>
     </g>
     <g id="line2d_24">
      <g>
       <use xlink:href="#mfa887b487f" x="89.562857" y="463.007934" style="stroke: #000000; stroke-width: 0.8"/>
      </g>
     </g>
     <g id="text_14">
      <!-- 90 -->
      <g transform="translate(69.837857 466.807152) scale(0.1 -0.1)">
       <defs>
        <path id="DejaVuSans-39" d="M 703 97 
L 703 672 
Q 941 559 1184 500 
Q 1428 441 1663 441 
Q 2288 441 2617 861 
Q 2947 1281 2994 2138 
Q 2813 1869 2534 1725 
Q 2256 1581 1919 1581 
Q 1219 1581 811 2004 
Q 403 2428 403 3163 
Q 403 3881 828 4315 
Q 1253 4750 1959 4750 
Q 2769 4750 3195 4129 
Q 3622 3509 3622 2328 
Q 3622 1225 3098 567 
Q 2575 -91 1691 -91 
Q 1453 -91 1209 -44 
Q 966 3 703 97 
z
M 1959 2075 
Q 2384 2075 2632 2365 
Q 2881 2656 2881 3163 
Q 2881 3666 2632 3958 
Q 2384 4250 1959 4250 
Q 1534 4250 1286 3958 
Q 1038 3666 1038 3163 
Q 1038 2656 1286 2365 
Q 1534 2075 1959 2075 
z
" transform="scale(0.015625)"/>
       </defs>
       <use xlink:href="#DejaVuSans-39"/>
       <use xlink:href="#DejaVuSans-30" x="63.623047"/>
      </g>
     </g>
    </g>
    <g id="ytick_4">
     <g id="line2d_25">
      <path d="M 89.562857 394.364585 
L 1586.257714 394.364585 
" clip-path="url(#pc5b8208fe8)" style="fill: none; stroke-dasharray: 1.85,0.8; stroke-dashoffset: 0; stroke: #b0b0b0; stroke-width: 0.5"/>
     </g>
     <g id="line2d_26">
      <g>
       <use xlink:href="#mfa887b487f" x="89.562857" y="394.364585" style="stroke: #000000; stroke-width: 0.8"/>
      </g>
     </g>
     <g id="text_15">
      <!-- 105 -->
      <g transform="translate(63.475357 398.163804) scale(0.1 -0.1)">
       <use xlink:href="#DejaVuSans-31"/>
       <use xlink:href="#DejaVuSans-30" x="63.623047"/>
       <use xlink:href="#DejaVuSans-35" x="127.246094"/>
      </g>
     </g>
    </g>
    <g id="ytick_5">
     <g id="line2d_27">
      <path d="M 89.562857 325.721237 
L 1586.257714 325.721237 
" clip-path="url(#pc5b8208fe8)" style="fill: none; stroke-dasharray: 1.85,0.8; stroke-dashoffset: 0; stroke: #b0b0b0; stroke-width: 0.5"/>
     </g>
     <g id="line2d_28">
      <g>
       <use xlink:href="#mfa887b487f" x="89.562857" y="325.721237" style="stroke: #000000; stroke-width: 0.8"/>
      </g>
     </g>
     <g id="text_16">
      <!-- 120 -->
      <g transform="translate(63.475357 329.520455) scale(0.1 -0.1)">
       <use xlink:href="#DejaVuSans-31"/>
       <use xlink:href="#DejaVuSans-32" x="63.623047"/>
       <use xlink:href="#DejaVuSans-30" x="127.246094"/>
      </g>
     </g>
    </g>
    <g id="ytick_6">
     <g id="line2d_29">
      <path d="M 89.562857 257.077888 
L 1586.257714 257.077888 
" clip-path="url(#pc5b8208fe8)" style="fill: none; stroke-dasharray: 1.85,0.8; stroke-dashoffset: 0; stroke: #b0b0b0; stroke-width: 0.5"/>
     </g>
     <g id="line2d_30">
      <g>
       <use xlink:href="#mfa887b487f" x="89.562857" y="257.077888" style="stroke: #000000; stroke-width: 0.8"/>
      </g>
     </g>
     <g id="text_17">
      <!-- 135 -->
      <g transform="translate(63.475357 260.877107) scale(0.1 -0.1)">
       <use xlink:href="#DejaVuSans-31"/>
       <use xlink:href="#DejaVuSans-33" x="63.623047"/>
       <use xlink:href="#DejaVuSans-35" x="127.246094"/>
      </g>
     </g>
    </g>
    <g id="ytick_7">
     <g id="line2d_31">
      <path d="M 89.562857 188.434539 
L 1586.257714 188.434539 
" clip-path="url(#pc5b8208fe8)" style="fill: none; stroke-dasharray: 1.85,0.8; stroke-dashoffset: 0; stroke: #b0b0b0; stroke-width: 0.5"/>
     </g>
     <g id="line2d_32">
      <g>
       <use xlink:href="#mfa887b487f" x="89.562857" y="188.434539" style="stroke: #000000; stroke-width: 0.8"/>
      </g>
     </g>
     <g id="text_18">
      <!-- 150 -->
      <g transform="translate(63.475357 192.233758) scale(0.1 -0.1)">
       <use xlink:href="#DejaVuSans-31"/>
       <use xlink:href="#DejaVuSans-35" x="63.623047"/>
       <use xlink:href="#DejaVuSans-30" x="127.246094"/>
      </g>
     </g>
    </g>
    <g id="ytick_8">
     <g id="line2d_33">
      <path d="M 89.562857 119.791191 
L 1586.257714 119.791191 
" clip-path="url(#pc5b8208fe8)" style="fill: none; stroke-dasharray: 1.85,0.8; stroke-dashoffset: 0; stroke: #b0b0b0; stroke-width: 0.5"/>
     </g>
     <g id="line2d_34">
      <g>
       <use xlink:href="#mfa887b487f" x="89.562857" y="119.791191" style="stroke: #000000; stroke-width: 0.8"/>
      </g>
     </g>
     <g id="text_19">
      <!-- 165 -->
      <g transform="translate(63.475357 123.59041) scale(0.1 -0.1)">
       <use xlink:href="#DejaVuSans-31"/>
       <use xlink:href="#DejaVuSans-36" x="63.623047"/>
       <use xlink:href="#DejaVuSans-35" x="127.246094"/>
      </g>
     </g>
    </g>
    <g id="text_20">
     <!-- Heart Rate (bpm) -->
     <g transform="translate(46.39567 376.262915) rotate(-90) scale(0.1 -0.1)">
      <defs>
       <path id="DejaVuSans-48" d="M 628 4666 
L 1259 4666 
L 1259 2753 
L 3553 2753 
L 3553 4666 
L 4184 4666 
L 4184 0 
L 3553 0 
L 3553 2222 
L 1259 2222 
L 1259 0 
L 628 0 
L 628 4666 
z
" transform="scale(0.015625)"/>
       <path id="DejaVuSans-61" d="M 2194 1759 
Q 1497 1759 1228 1600 
Q 959 1441 959 1056 
Q 959 750 1161 570 
Q 1363 391 1709 391 
Q 2188 391 2477 730 
Q 2766 1069 2766 1631 
L 2766 1759 
L 2194 1759 
z
M 3341 1997 
L 3341 0 
L 2766 0 
L 2766 531 
Q 2569 213 2275 61 
Q 1981 -91 1556 -91 
Q 1019 -91 701 211 
Q 384 513 384 1019 
Q 384 1609 779 1909 
Q 1175 2209 1959 2209 
L 2766 2209 
L 2766 2266 
Q 2766 2663 2505 2880 
Q 2244 3097 1772 3097 
Q 1472 3097 1187 3025 
Q 903 2953 641 2809 
L 641 3341 
Q 956 3463 1253 3523 
Q 1550 3584 1831 3584 
Q 2591 3584 2966 3190 
Q 3341 2797 3341 1997 
z
" transform="scale(0.015625)"/>
       <path id="DejaVuSans-72" d="M 2631 2963 
Q 2534 3019 2420 3045 
Q 2306 3072 2169 3072 
Q 1681 3072 1420 2755 
Q 1159 2438 1159 1844 
L 1159 0 
L 581 0 
L 581 3500 
L 1159 3500 
L 1159 2956 
Q 1341 3275 1631 3429 
Q 1922 3584 2338 3584 
Q 2397 3584 2469 3576 
Q 2541 3569 2628 3553 
L 2631 2963 
z
" transform="scale(0.015625)"/>
       <path id="DejaVuSans-74" d="M 1172 4494 
L 1172 3500 
L 2356 3500 
L 2356 3053 
L 1172 3053 
L 1172 1153 
Q 1172 725 1289 603 
Q 1406 481 1766 481 
L 2356 481 
L 2356 0 
L 1766 0 
Q 1100 0 847 248 
Q 594 497 594 1153 
L 594 3053 
L 172 3053 
L 172 3500 
L 594 3500 
L 594 4494 
L 1172 4494 
z
" transform="scale(0.015625)"/>
       <path id="DejaVuSans-20" transform="scale(0.015625)"/>
       <path id="DejaVuSans-52" d="M 2841 2188 
Q 3044 2119 3236 1894 
Q 3428 1669 3622 1275 
L 4263 0 
L 3584 0 
L 2988 1197 
Q 2756 1666 2539 1819 
Q 2322 1972 1947 1972 
L 1259 1972 
L 1259 0 
L 628 0 
L 628 4666 
L 2053 4666 
Q 2853 4666 3247 4331 
Q 3641 3997 3641 3322 
Q 3641 2881 3436 2590 
Q 3231 2300 2841 2188 
z
M 1259 4147 
L 1259 2491 
L 2053 2491 
Q 2509 2491 2742 2702 
Q 2975 2913 2975 3322 
Q 2975 3731 2742 3939 
Q 2509 4147 2053 4147 
L 1259 4147 
z
" transform="scale(0.015625)"/>
       <path id="DejaVuSans-28" d="M 1984 4856 
Q 1566 4138 1362 3434 
Q 1159 2731 1159 2009 
Q 1159 1288 1364 580 
Q 1569 -128 1984 -844 
L 1484 -844 
Q 1016 -109 783 600 
Q 550 1309 550 2009 
Q 550 2706 781 3412 
Q 1013 4119 1484 4856 
L 1984 4856 
z
" transform="scale(0.015625)"/>
       <path id="DejaVuSans-62" d="M 3116 1747 
Q 3116 2381 2855 2742 
Q 2594 3103 2138 3103 
Q 1681 3103 1420 2742 
Q 1159 2381 1159 1747 
Q 1159 1113 1420 752 
Q 1681 391 2138 391 
Q 2594 391 2855 752 
Q 3116 1113 3116 1747 
z
M 1159 2969 
Q 1341 3281 1617 3432 
Q 1894 3584 2278 3584 
Q 2916 3584 3314 3078 
Q 3713 2572 3713 1747 
Q 3713 922 3314 415 
Q 2916 -91 2278 -91 
Q 1894 -91 1617 61 
Q 1341 213 1159 525 
L 1159 0 
L 581 0 
L 581 4863 
L 1159 4863 
L 1159 2969 
z
" transform="scale(0.015625)"/>
       <path id="DejaVuSans-70" d="M 1159 525 
L 1159 -1331 
L 581 -1331 
L 581 3500 
L 1159 3500 
L 1159 2969 
Q 1341 3281 1617 3432 
Q 1894 3584 2278 3584 
Q 2916 3584 3314 3078 
Q 3713 2572 3713 1747 
Q 3713 922 3314 415 
Q 2916 -91 2278 -91 
Q 1894 -91 1617 61 
Q 1341 213 1159 525 
z
M 3116 1747 
Q 3116 2381 2855 2742 
Q 2594 3103 2138 3103 
Q 1681 3103 1420 2742 
Q 1159 2381 1159 1747 
Q 1159 1113 1420 752 
Q 1681 391 2138 391 
Q 2594 391 2855 752 
Q 3116 1113 3116 1747 
z
" transform="scale(0.015625)"/>
       <path id="DejaVuSans-29" d="M 513 4856 
L 1013 4856 
Q 1481 4119 1714 3412 
Q 1947 2706 1947 2009 
Q 1947 1309 1714 600 
Q 1481 -109 1013 -844 
L 513 -844 
Q 928 -128 1133 580 
Q 1338 1288 1338 2009 
Q 1338 2731 1133 3434 
Q 928 4138 513 4856 
z
" transform="scale(0.015625)"/>
      </defs>
      <use xlink:href="#DejaVuSans-48"/>
      <use xlink:href="#DejaVuSans-65" x="75.195312"/>
      <use xlink:href="#DejaVuSans-61" x="136.71875"/>
      <use xlink:href="#DejaVuSans-72" x="197.998047"/>
      <use xlink:href="#DejaVuSans-74" x="239.111328"/>
      <use xlink:href="#DejaVuSans-20" x="278.320312"/>
      <use xlink:href="#DejaVuSans-52" x="310.107422"/>
      <use xlink:href="#DejaVuSans-61" x="377.339844"/>
      <use xlink:href="#DejaVuSans-74" x="438.619141"/>
      <use xlink:href="#DejaVuSans-65" x="477.828125"/>
      <use xlink:href="#DejaVuSans-20" x="539.351562"/>
      <use xlink:href="#DejaVuSans-28" x="571.138672"/>
      <use xlink:href="#DejaVuSans-62" x="610.152344"/>
      <use xlink:href="#DejaVuSans-70" x="673.628906"/>
      <use xlink:href="#DejaVuSans-6d" x="737.105469"/>
      <use xlink:href="#DejaVuSans-29" x="834.517578"/>
     </g>
    </g>
   </g>
   <g id="line2d_35">
    <path d="M 157.594442 586.565961 
L 158.145082 572.837291 
L 158.695722 563.684845 
L 159.246362 549.956175 
L 159.797002 513.346389 
L 160.347642 508.770166 
L 160.898282 495.041496 
L 161.448922 485.88905 
L 161.999562 472.16038 
L 162.550202 463.007934 
L 163.100843 458.43171 
L 163.651483 458.43171 
L 164.202123 463.007934 
L 164.752763 463.007934 
L 165.854043 453.855487 
L 166.955323 453.855487 
L 167.505963 449.279264 
L 168.056603 449.279264 
L 168.607244 440.126817 
L 170.259164 440.126817 
L 170.259164 440.126817 
L 170.809804 444.703041 
L 174.113645 444.703041 
L 175.214925 453.855487 
L 176.866845 453.855487 
L 177.417485 449.279264 
L 179.620046 449.279264 
L 181.271966 463.007934 
L 182.923886 463.007934 
L 183.474526 458.43171 
L 184.025166 458.43171 
L 184.575806 463.007934 
L 185.126447 463.007934 
L 185.677087 467.584157 
L 186.227727 476.736603 
L 187.879647 490.465273 
L 188.430287 499.61772 
L 190.082207 499.61772 
L 190.632847 504.193943 
L 191.183488 504.193943 
L 192.284768 513.346389 
L 194.487328 513.346389 
L 195.037968 508.770166 
L 197.240529 508.770166 
L 197.791169 504.193943 
L 199.443089 504.193943 
L 199.993729 508.770166 
L 201.645649 508.770166 
L 202.19629 513.346389 
L 204.39885 513.346389 
L 204.94949 517.922612 
L 206.05077 517.922612 
L 206.601411 522.498836 
L 207.702691 522.498836 
L 208.253331 527.075059 
L 210.455891 527.075059 
L 211.006531 522.498836 
L 211.557171 522.498836 
L 212.107811 517.922612 
L 215.411652 517.922612 
L 215.962292 522.498836 
L 217.063572 522.498836 
L 217.614213 517.922612 
L 218.715493 517.922612 
L 219.266133 522.498836 
L 219.816773 517.922612 
L 220.367413 517.922612 
L 220.918053 522.498836 
L 224.221894 522.498836 
L 224.772534 517.922612 
L 226.424454 517.922612 
L 226.975094 513.346389 
L 230.278935 513.346389 
L 230.829575 517.922612 
L 231.380215 517.922612 
L 231.930855 522.498836 
L 232.481495 522.498836 
L 233.032135 527.075059 
L 234.684056 527.075059 
L 235.234696 522.498836 
L 235.785336 522.498836 
L 236.335976 517.922612 
L 236.886616 517.922612 
L 237.987896 508.770166 
L 238.538536 508.770166 
L 239.089176 504.193943 
L 239.639816 508.770166 
L 240.741097 508.770166 
L 241.291737 513.346389 
L 241.842377 513.346389 
L 242.393017 508.770166 
L 244.595577 508.770166 
L 245.696858 504.193943 
L 245.696858 504.193943 
L 246.247498 504.193943 
L 246.798138 495.041496 
L 247.348778 495.041496 
L 250.101978 472.16038 
L 250.652618 472.16038 
L 251.203259 467.584157 
L 253.405819 467.584157 
L 253.956459 463.007934 
L 254.507099 463.007934 
L 255.057739 458.43171 
L 255.608379 458.43171 
L 256.159019 453.855487 
L 256.70966 444.703041 
L 257.81094 435.550594 
L 258.36158 426.398148 
L 258.91222 426.398148 
L 260.56414 412.669478 
L 261.11478 412.669478 
L 263.317341 394.364585 
L 264.969261 394.364585 
L 267.171821 376.059692 
L 267.722462 366.907246 
L 268.823742 357.754799 
L 272.127582 357.754799 
L 272.678223 353.178576 
L 273.228863 353.178576 
L 273.779503 348.602353 
L 274.880783 348.602353 
L 275.431423 344.02613 
L 277.083343 344.02613 
L 277.633983 339.449906 
L 278.184623 339.449906 
L 279.285904 330.29746 
L 280.387184 325.721237 
L 280.387184 316.56879 
L 281.488464 307.416344 
L 282.039104 298.263897 
L 283.691025 284.535227 
L 284.241665 275.382781 
L 284.792305 270.806558 
L 285.342945 270.806558 
L 286.444225 261.654111 
L 286.994865 261.654111 
L 287.545505 257.077888 
L 289.197425 257.077888 
L 289.748066 252.501665 
L 290.298706 252.501665 
L 290.849346 247.925442 
L 291.399986 247.925442 
L 291.950626 243.349218 
L 293.051906 243.349218 
L 293.602546 238.772995 
L 301.311508 238.772995 
L 301.862148 243.349218 
L 302.963428 243.349218 
L 303.514068 247.925442 
L 304.064708 247.925442 
L 305.165989 257.077888 
L 305.716629 257.077888 
L 306.817909 266.230335 
L 307.368549 266.230335 
L 308.469829 270.806558 
L 308.469829 275.382781 
L 309.020469 275.382781 
L 309.571109 279.959004 
L 310.121749 279.959004 
L 310.672389 284.535227 
L 313.97623 284.535227 
L 314.52687 279.959004 
L 315.07751 284.535227 
L 316.729431 284.535227 
L 317.280071 279.959004 
L 317.830711 279.959004 
L 318.931991 275.382781 
L 318.931991 275.382781 
L 321.134551 257.077888 
L 321.685191 257.077888 
L 323.337112 243.349218 
L 323.887752 243.349218 
L 324.438392 238.772995 
L 325.539672 238.772995 
L 325.539672 234.196772 
L 326.090312 234.196772 
L 327.191592 225.044325 
L 327.742233 225.044325 
L 328.292873 220.468102 
L 328.843513 220.468102 
L 329.944793 211.315656 
L 330.495433 211.315656 
L 331.596713 202.163209 
L 332.147353 202.163209 
L 333.248634 193.010763 
L 333.799274 193.010763 
L 334.349914 188.434539 
L 334.900554 188.434539 
L 335.451194 183.858316 
L 336.001834 183.858316 
L 336.552474 179.282093 
L 337.103114 179.282093 
L 337.653754 174.70587 
L 339.305675 174.70587 
L 339.856315 170.129647 
L 340.957595 170.129647 
L 341.508235 165.553423 
L 345.362716 165.553423 
L 345.913356 160.9772 
L 349.217196 160.9772 
L 349.767837 156.400977 
L 353.622317 156.400977 
L 354.172957 151.824754 
L 358.027438 151.824754 
L 358.027438 147.24853 
L 359.128718 147.24853 
L 359.679358 142.672307 
L 363.533839 142.672307 
L 364.084479 138.096084 
L 369.04024 138.096084 
L 369.59088 142.672307 
L 371.2428 142.672307 
L 371.793441 147.24853 
L 372.344081 147.24853 
L 372.894721 151.824754 
L 373.445361 147.24853 
L 373.996001 151.824754 
L 375.097281 147.24853 
L 375.097281 151.824754 
L 376.198561 151.824754 
L 376.749202 147.24853 
L 377.299842 147.24853 
L 377.850482 151.824754 
L 387.211363 151.824754 
L 387.762004 147.24853 
L 389.413924 147.24853 
L 390.515204 138.096084 
L 392.167124 138.096084 
L 392.717764 133.519861 
L 393.268405 133.519861 
L 393.819045 128.943637 
L 394.369685 128.943637 
L 394.920325 124.367414 
L 395.470965 128.943637 
L 396.572245 124.367414 
L 396.572245 128.943637 
L 397.122885 124.367414 
L 398.224165 124.367414 
L 398.774806 128.943637 
L 399.876086 128.943637 
L 400.426726 133.519861 
L 400.977366 128.943637 
L 402.078646 133.519861 
L 402.078646 133.519861 
L 404.831847 133.519861 
L 405.382487 138.096084 
L 405.933127 138.096084 
L 406.483767 142.672307 
L 407.034407 138.096084 
L 407.585047 142.672307 
L 409.787607 142.672307 
L 410.338248 147.24853 
L 411.990168 147.24853 
L 412.540808 142.672307 
L 413.642088 142.672307 
L 414.192728 138.096084 
L 414.743369 142.672307 
L 415.294009 138.096084 
L 416.395289 138.096084 
L 416.945929 133.519861 
L 418.597849 133.519861 
L 419.148489 128.943637 
L 420.249769 128.943637 
L 420.800409 124.367414 
L 422.45233 124.367414 
L 423.00297 119.791191 
L 436.218332 119.791191 
L 436.768973 124.367414 
L 437.319613 119.791191 
L 437.870253 119.791191 
L 438.420893 124.367414 
L 439.522173 124.367414 
L 440.072813 128.943637 
L 441.724733 128.943637 
L 442.275373 133.519861 
L 444.477934 133.519861 
L 444.477934 138.096084 
L 446.680494 138.096084 
L 447.231134 142.672307 
L 448.883055 142.672307 
L 449.433695 147.24853 
L 450.534975 147.24853 
L 450.534975 147.24853 
L 451.085615 151.824754 
L 452.737535 151.824754 
L 453.288176 156.400977 
L 453.838816 156.400977 
L 454.389456 165.553423 
L 456.041376 179.282093 
L 456.592016 179.282093 
L 457.142656 183.858316 
L 458.243936 183.858316 
L 458.794576 188.434539 
L 459.345217 183.858316 
L 459.895857 183.858316 
L 460.446497 179.282093 
L 460.997137 179.282093 
L 461.547777 174.70587 
L 462.098417 174.70587 
L 463.199697 165.553423 
L 464.300978 165.553423 
L 464.300978 160.9772 
L 464.851618 156.400977 
L 465.402258 156.400977 
L 465.952898 151.824754 
L 466.503538 151.824754 
L 467.054178 147.24853 
L 468.155458 142.672307 
L 468.155458 142.672307 
L 468.706098 142.672307 
L 469.256738 138.096084 
L 470.358019 138.096084 
L 470.908659 133.519861 
L 483.022741 133.519861 
L 483.573381 138.096084 
L 486.877222 138.096084 
L 487.427862 142.672307 
L 487.978502 142.672307 
L 488.529142 147.24853 
L 490.731702 147.24853 
L 491.282342 151.824754 
L 492.934263 151.824754 
L 493.484903 147.24853 
L 494.035543 151.824754 
L 495.136823 151.824754 
L 495.687463 147.24853 
L 497.339383 147.24853 
L 497.890024 142.672307 
L 500.092584 142.672307 
L 500.643224 138.096084 
L 501.744504 138.096084 
L 502.295144 133.519861 
L 504.497705 133.519861 
L 505.048345 128.943637 
L 506.700265 128.943637 
L 507.250905 124.367414 
L 507.801545 128.943637 
L 508.352185 124.367414 
L 508.902826 124.367414 
L 509.453466 128.943637 
L 510.004106 124.367414 
L 514.409227 124.367414 
L 514.959867 119.791191 
L 520.466268 119.791191 
L 520.466268 119.791191 
L 521.016908 115.214968 
L 523.219468 115.214968 
L 523.770108 110.638744 
L 525.972669 110.638744 
L 526.523309 106.062521 
L 527.624589 106.062521 
L 527.624589 106.062521 
L 528.175229 110.638744 
L 528.725869 106.062521 
L 529.276509 110.638744 
L 530.377789 106.062521 
L 530.377789 110.638744 
L 530.92843 110.638744 
L 531.47907 115.214968 
L 532.58035 115.214968 
L 532.58035 119.791191 
L 533.13099 119.791191 
L 533.68163 124.367414 
L 534.23227 124.367414 
L 534.78291 128.943637 
L 535.33355 128.943637 
L 535.884191 133.519861 
L 536.985471 138.096084 
L 536.985471 142.672307 
L 537.536111 142.672307 
L 538.086751 151.824754 
L 538.637391 151.824754 
L 539.738671 160.9772 
L 540.289311 160.9772 
L 540.839951 165.553423 
L 542.491872 165.553423 
L 543.593152 170.129647 
L 543.593152 174.70587 
L 544.694432 174.70587 
L 545.245072 179.282093 
L 545.795712 179.282093 
L 548.548913 202.163209 
L 549.099553 211.315656 
L 549.650193 215.891879 
L 550.200833 225.044325 
L 550.751473 238.772995 
L 551.302113 247.925442 
L 551.852753 252.501665 
L 552.403394 261.654111 
L 554.055314 275.382781 
L 555.707234 302.84012 
L 556.257874 316.56879 
L 556.808514 325.721237 
L 557.359154 339.449906 
L 557.909795 344.02613 
L 558.460435 353.178576 
L 559.561715 362.331022 
L 560.662995 380.635915 
L 561.213635 385.212139 
L 561.764275 394.364585 
L 562.314915 398.940808 
L 562.865556 408.093255 
L 563.966836 408.093255 
L 564.517476 412.669478 
L 565.068116 412.669478 
L 566.169396 403.517032 
L 566.720036 403.517032 
L 567.270676 408.093255 
L 568.371956 426.398148 
L 568.922597 430.974371 
L 569.473237 430.974371 
L 570.574517 440.126817 
L 571.125157 440.126817 
L 571.675797 444.703041 
L 572.226437 444.703041 
L 573.878358 430.974371 
L 574.428998 421.821925 
L 576.080918 408.093255 
L 576.080918 398.940808 
L 577.182198 389.788362 
L 577.732838 389.788362 
L 579.935399 371.483469 
L 581.587319 344.02613 
L 582.137959 330.29746 
L 582.688599 311.992567 
L 583.789879 284.535227 
L 584.340519 275.382781 
L 584.89116 257.077888 
L 585.4418 247.925442 
L 585.99244 229.620549 
L 586.54308 220.468102 
L 587.09372 206.739432 
L 589.29628 170.129647 
L 590.948201 156.400977 
L 590.948201 151.824754 
L 591.498841 142.672307 
L 592.049481 138.096084 
L 592.600121 138.096084 
L 593.701401 128.943637 
L 594.802681 128.943637 
L 595.353321 124.367414 
L 597.555882 124.367414 
L 598.106522 119.791191 
L 602.511643 119.791191 
L 603.062283 115.214968 
L 603.612923 119.791191 
L 607.467404 119.791191 
L 608.018044 124.367414 
L 611.872524 124.367414 
L 612.423165 119.791191 
L 612.973805 119.791191 
L 613.524445 115.214968 
L 616.828285 115.214968 
L 617.378925 110.638744 
L 620.682766 110.638744 
L 621.233406 106.062521 
L 621.784046 110.638744 
L 623.435967 110.638744 
L 623.986607 115.214968 
L 624.537247 110.638744 
L 625.638527 119.791191 
L 627.290447 119.791191 
L 627.841087 115.214968 
L 628.391727 119.791191 
L 628.942367 115.214968 
L 630.594288 115.214968 
L 631.144928 110.638744 
L 633.347488 110.638744 
L 633.898129 106.062521 
L 635.550049 106.062521 
L 636.100689 101.486298 
L 637.752609 101.486298 
L 638.303249 106.062521 
L 641.05645 106.062521 
L 641.60709 110.638744 
L 642.15773 106.062521 
L 652.069252 106.062521 
L 652.619892 110.638744 
L 653.170532 106.062521 
L 653.721172 106.062521 
L 654.271812 110.638744 
L 655.373092 110.638744 
L 655.923733 115.214968 
L 656.474373 110.638744 
L 658.676933 110.638744 
L 659.227573 115.214968 
L 660.879493 115.214968 
L 661.430133 110.638744 
L 663.082054 110.638744 
L 663.632694 106.062521 
L 664.733974 106.062521 
L 665.284614 101.486298 
L 666.385894 101.486298 
L 666.385894 101.486298 
L 666.936535 106.062521 
L 667.487175 106.062521 
L 668.037815 101.486298 
L 668.588455 106.062521 
L 670.791015 106.062521 
L 671.341655 101.486298 
L 671.892295 101.486298 
L 672.442936 106.062521 
L 672.993576 101.486298 
L 673.544216 106.062521 
L 675.746776 106.062521 
L 676.297416 101.486298 
L 676.848056 101.486298 
L 677.398696 106.062521 
L 679.050617 106.062521 
L 679.601257 101.486298 
L 680.151897 106.062521 
L 680.702537 106.062521 
L 681.253177 110.638744 
L 682.905097 110.638744 
L 683.455738 115.214968 
L 684.557018 115.214968 
L 685.658298 124.367414 
L 687.310218 124.367414 
L 687.860858 128.943637 
L 688.962138 128.943637 
L 689.512779 133.519861 
L 691.164699 133.519861 
L 691.715339 138.096084 
L 695.01918 138.096084 
L 695.56982 133.519861 
L 696.12046 133.519861 
L 696.6711 128.943637 
L 698.87366 128.943637 
L 699.4243 124.367414 
L 700.525581 124.367414 
L 701.076221 119.791191 
L 701.626861 124.367414 
L 702.177501 119.791191 
L 703.829421 119.791191 
L 704.380061 115.214968 
L 704.930701 119.791191 
L 705.481341 115.214968 
L 707.683902 115.214968 
L 708.234542 119.791191 
L 709.886462 119.791191 
L 710.437102 124.367414 
L 712.089023 124.367414 
L 712.639663 128.943637 
L 714.291583 128.943637 
L 714.842223 133.519861 
L 716.494143 133.519861 
L 717.044784 128.943637 
L 723.652465 128.943637 
L 724.753745 119.791191 
L 725.855025 119.791191 
L 725.855025 119.791191 
L 726.405665 115.214968 
L 726.956305 115.214968 
L 728.057586 106.062521 
L 729.158866 106.062521 
L 729.709506 101.486298 
L 730.260146 101.486298 
L 730.810786 96.910075 
L 735.215907 96.910075 
L 735.215907 92.333852 
L 738.519747 92.333852 
L 739.070388 96.910075 
L 739.621028 92.333852 
L 740.171668 92.333852 
L 740.722308 96.910075 
L 742.374228 96.910075 
L 742.924868 101.486298 
L 744.026149 101.486298 
L 744.576789 106.062521 
L 746.228709 106.062521 
L 746.779349 110.638744 
L 747.880629 110.638744 
L 748.431269 115.214968 
L 749.53255 115.214968 
L 750.08319 119.791191 
L 751.73511 119.791191 
L 752.83639 124.367414 
L 752.83639 124.367414 
L 753.38703 124.367414 
L 753.93767 128.943637 
L 756.140231 128.943637 
L 756.690871 133.519861 
L 758.893431 133.519861 
L 759.444071 138.096084 
L 759.994711 138.096084 
L 761.095992 128.943637 
L 761.646632 128.943637 
L 762.747912 119.791191 
L 763.298552 119.791191 
L 764.399832 110.638744 
L 764.950472 115.214968 
L 765.501112 110.638744 
L 766.051753 110.638744 
L 766.602393 106.062521 
L 767.153033 110.638744 
L 767.703673 106.062521 
L 768.804953 110.638744 
L 768.804953 106.062521 
L 769.355593 106.062521 
L 769.906233 110.638744 
L 773.210074 110.638744 
L 773.760714 106.062521 
L 775.412634 106.062521 
L 775.963274 101.486298 
L 776.513914 106.062521 
L 777.064555 101.486298 
L 785.324156 101.486298 
L 785.874796 106.062521 
L 788.627997 106.062521 
L 789.178637 110.638744 
L 791.381197 110.638744 
L 791.931837 115.214968 
L 792.482477 115.214968 
L 793.033118 119.791191 
L 793.583758 115.214968 
L 794.685038 115.214968 
L 795.235678 119.791191 
L 795.786318 119.791191 
L 796.336958 124.367414 
L 800.742079 124.367414 
L 800.742079 119.791191 
L 801.843359 119.791191 
L 802.393999 115.214968 
L 802.944639 115.214968 
L 803.495279 110.638744 
L 804.04592 110.638744 
L 804.59656 106.062521 
L 807.34976 106.062521 
L 807.9004 101.486298 
L 808.45104 106.062521 
L 809.55232 106.062521 
L 810.102961 110.638744 
L 810.653601 110.638744 
L 811.204241 115.214968 
L 811.754881 115.214968 
L 812.305521 119.791191 
L 813.406801 119.791191 
L 814.508081 128.943637 
L 815.058722 128.943637 
L 816.710642 142.672307 
L 817.811922 142.672307 
L 817.811922 147.24853 
L 818.913202 156.400977 
L 819.463842 156.400977 
L 822.767683 183.858316 
L 823.318323 179.282093 
L 823.868963 179.282093 
L 824.419603 183.858316 
L 824.970243 179.282093 
L 826.071524 179.282093 
L 826.622164 174.70587 
L 827.172804 174.70587 
L 828.824724 160.9772 
L 829.375364 160.9772 
L 830.476644 151.824754 
L 831.027284 151.824754 
L 832.679205 138.096084 
L 833.229845 138.096084 
L 834.331125 128.943637 
L 834.881765 128.943637 
L 835.432405 124.367414 
L 835.983045 124.367414 
L 836.533685 119.791191 
L 837.084326 119.791191 
L 837.634966 115.214968 
L 838.185606 115.214968 
L 839.286886 110.638744 
L 839.286886 106.062521 
L 844.242647 106.062521 
L 844.793287 101.486298 
L 845.343927 106.062521 
L 846.445207 106.062521 
L 846.995847 101.486298 
L 848.647768 101.486298 
L 849.198408 106.062521 
L 852.502248 106.062521 
L 853.052889 110.638744 
L 854.704809 110.638744 
L 855.255449 115.214968 
L 856.907369 115.214968 
L 857.458009 119.791191 
L 858.008649 119.791191 
L 858.559289 124.367414 
L 859.109929 124.367414 
L 859.66057 128.943637 
L 860.76185 128.943637 
L 861.31249 133.519861 
L 862.41377 133.519861 
L 863.51505 142.672307 
L 864.065691 142.672307 
L 864.616331 147.24853 
L 865.717611 151.824754 
L 865.717611 156.400977 
L 866.268251 156.400977 
L 866.818891 165.553423 
L 867.369531 165.553423 
L 867.920171 174.70587 
L 869.572091 188.434539 
L 870.122732 197.586986 
L 872.325292 215.891879 
L 872.875932 215.891879 
L 873.426572 225.044325 
L 873.977212 225.044325 
L 876.730413 247.925442 
L 877.831693 247.925442 
L 878.382333 252.501665 
L 878.932973 252.501665 
L 879.483613 257.077888 
L 880.584893 257.077888 
L 881.135534 261.654111 
L 882.236814 261.654111 
L 882.236814 266.230335 
L 882.787454 266.230335 
L 883.338094 270.806558 
L 884.439374 270.806558 
L 884.990014 275.382781 
L 886.641935 275.382781 
L 887.192575 279.959004 
L 887.743215 279.959004 
L 888.293855 284.535227 
L 891.047055 284.535227 
L 892.148336 275.382781 
L 892.698976 275.382781 
L 893.249616 270.806558 
L 893.800256 261.654111 
L 894.350896 261.654111 
L 895.452176 243.349218 
L 896.002816 238.772995 
L 896.553456 229.620549 
L 897.654737 220.468102 
L 898.205377 211.315656 
L 899.306657 202.163209 
L 899.857297 193.010763 
L 900.407937 188.434539 
L 900.958577 179.282093 
L 901.509217 174.70587 
L 902.059857 165.553423 
L 903.161138 156.400977 
L 903.711778 147.24853 
L 904.262418 142.672307 
L 904.813058 142.672307 
L 905.363698 133.519861 
L 905.914338 128.943637 
L 906.464978 128.943637 
L 907.015618 124.367414 
L 907.566258 124.367414 
L 908.667539 119.791191 
L 908.667539 115.214968 
L 909.768819 115.214968 
L 910.319459 110.638744 
L 911.420739 110.638744 
L 911.971379 106.062521 
L 918.02842 106.062521 
L 918.57906 101.486298 
L 926.838662 101.486298 
L 926.838662 101.486298 
L 927.389302 106.062521 
L 928.490582 106.062521 
L 929.041222 110.638744 
L 929.591862 106.062521 
L 930.142503 110.638744 
L 932.345063 110.638744 
L 932.895703 115.214968 
L 934.547623 115.214968 
L 935.098264 119.791191 
L 935.648903 119.791191 
L 936.750184 128.943637 
L 937.300824 128.943637 
L 937.851464 133.519861 
L 938.402104 133.519861 
L 940.054024 147.24853 
L 940.604664 147.24853 
L 941.155305 151.824754 
L 941.705945 160.9772 
L 942.256585 160.9772 
L 943.357865 170.129647 
L 943.908505 179.282093 
L 946.111065 197.586986 
L 946.661705 206.739432 
L 947.212346 211.315656 
L 947.762986 211.315656 
L 948.313626 215.891879 
L 948.864266 215.891879 
L 950.516186 229.620549 
L 951.066826 229.620549 
L 952.168107 238.772995 
L 952.718747 238.772995 
L 953.269387 243.349218 
L 954.370667 243.349218 
L 954.921307 247.925442 
L 955.471947 247.925442 
L 956.022587 252.501665 
L 957.674507 252.501665 
L 958.225148 247.925442 
L 958.775788 247.925442 
L 959.326428 243.349218 
L 959.877068 234.196772 
L 960.427708 229.620549 
L 960.978348 220.468102 
L 961.528988 215.891879 
L 962.630269 197.586986 
L 963.180909 197.586986 
L 964.282189 183.858316 
L 964.282189 179.282093 
L 965.383469 170.129647 
L 965.934109 160.9772 
L 966.484749 156.400977 
L 967.586029 151.824754 
L 967.586029 147.24853 
L 969.78859 128.943637 
L 970.33923 128.943637 
L 970.88987 124.367414 
L 971.44051 124.367414 
L 972.54179 115.214968 
L 973.64307 115.214968 
L 974.193711 110.638744 
L 974.744351 110.638744 
L 975.294991 106.062521 
L 975.845631 106.062521 
L 976.396271 101.486298 
L 976.946911 101.486298 
L 977.497551 96.910075 
L 979.149471 96.910075 
L 979.700112 92.333852 
L 984.655872 92.333852 
L 985.206513 87.757628 
L 986.858433 87.757628 
L 987.409073 92.333852 
L 990.162273 92.333852 
L 990.712914 87.757628 
L 991.263554 92.333852 
L 994.016754 92.333852 
L 994.016754 96.910075 
L 995.118034 96.910075 
L 995.668674 101.486298 
L 996.219315 101.486298 
L 996.769955 106.062521 
L 997.871235 106.062521 
L 998.421875 110.638744 
L 999.523155 115.214968 
L 999.523155 115.214968 
L 1000.073795 115.214968 
L 1001.175076 124.367414 
L 1002.276356 124.367414 
L 1002.826996 133.519861 
L 1003.377636 133.519861 
L 1007.232117 165.553423 
L 1007.782757 165.553423 
L 1010.535957 188.434539 
L 1011.086597 188.434539 
L 1013.289158 206.739432 
L 1013.839798 206.739432 
L 1014.390438 215.891879 
L 1014.941078 220.468102 
L 1015.491718 220.468102 
L 1016.042358 225.044325 
L 1016.592998 220.468102 
L 1017.143638 220.468102 
L 1018.244919 211.315656 
L 1018.795559 211.315656 
L 1020.447479 197.586986 
L 1020.998119 188.434539 
L 1022.099399 179.282093 
L 1022.650039 170.129647 
L 1025.40324 147.24853 
L 1025.95388 147.24853 
L 1027.05516 138.096084 
L 1027.6058 138.096084 
L 1028.15644 133.519861 
L 1028.70708 133.519861 
L 1029.257721 128.943637 
L 1029.808361 128.943637 
L 1030.909641 119.791191 
L 1031.460281 119.791191 
L 1033.112201 106.062521 
L 1034.213482 106.062521 
L 1034.764122 101.486298 
L 1035.314762 101.486298 
L 1035.865402 96.910075 
L 1037.517322 96.910075 
L 1038.618602 87.757628 
L 1045.226284 87.757628 
L 1045.776924 83.181405 
L 1046.327564 83.181405 
L 1046.878204 87.757628 
L 1047.428844 87.757628 
L 1047.979484 83.181405 
L 1048.530124 83.181405 
L 1049.080764 87.757628 
L 1052.384605 87.757628 
L 1052.935245 92.333852 
L 1053.485885 87.757628 
L 1054.036525 87.757628 
L 1054.587165 92.333852 
L 1055.137805 92.333852 
L 1055.688445 87.757628 
L 1056.239086 92.333852 
L 1058.992286 92.333852 
L 1059.542926 96.910075 
L 1060.093566 96.910075 
L 1060.644206 92.333852 
L 1063.948047 92.333852 
L 1064.498687 96.910075 
L 1069.454448 96.910075 
L 1070.005088 92.333852 
L 1072.758289 92.333852 
L 1073.308929 87.757628 
L 1074.410209 87.757628 
L 1074.960849 92.333852 
L 1078.26469 92.333852 
L 1078.81533 96.910075 
L 1079.36597 96.910075 
L 1079.91661 92.333852 
L 1080.46725 96.910075 
L 1082.11917 96.910075 
L 1083.220451 87.757628 
L 1084.321731 87.757628 
L 1084.872371 83.181405 
L 1086.524291 83.181405 
L 1087.074931 78.605182 
L 1087.625571 83.181405 
L 1088.176211 83.181405 
L 1088.726851 78.605182 
L 1089.277492 83.181405 
L 1089.828132 78.605182 
L 1090.378772 83.181405 
L 1093.131972 83.181405 
L 1093.682612 87.757628 
L 1094.783893 87.757628 
L 1095.885173 96.910075 
L 1096.435813 96.910075 
L 1096.986453 101.486298 
L 1097.537093 101.486298 
L 1098.087733 106.062521 
L 1098.638373 106.062521 
L 1099.739654 115.214968 
L 1100.290294 115.214968 
L 1101.391574 124.367414 
L 1101.942214 124.367414 
L 1103.043494 133.519861 
L 1103.594134 133.519861 
L 1104.144774 138.096084 
L 1104.695414 138.096084 
L 1105.796695 147.24853 
L 1106.897975 151.824754 
L 1106.897975 156.400977 
L 1107.448615 156.400977 
L 1107.999255 160.9772 
L 1108.549895 170.129647 
L 1109.100535 170.129647 
L 1110.201815 179.282093 
L 1112.404376 179.282093 
L 1112.955016 174.70587 
L 1113.505656 174.70587 
L 1114.056296 170.129647 
L 1115.157576 170.129647 
L 1116.258856 160.9772 
L 1116.809497 160.9772 
L 1119.012057 151.824754 
L 1119.012057 147.24853 
L 1119.562697 142.672307 
L 1120.113337 142.672307 
L 1121.765258 128.943637 
L 1122.315898 128.943637 
L 1123.417178 119.791191 
L 1123.967818 119.791191 
L 1125.069098 110.638744 
L 1125.619738 110.638744 
L 1126.170378 106.062521 
L 1127.271658 106.062521 
L 1128.372939 101.486298 
L 1128.372939 101.486298 
L 1128.923579 96.910075 
L 1133.3287 96.910075 
L 1133.87934 92.333852 
L 1137.18318 92.333852 
L 1137.73382 87.757628 
L 1138.28446 92.333852 
L 1138.835101 92.333852 
L 1139.385741 87.757628 
L 1139.936381 92.333852 
L 1140.487021 87.757628 
L 1143.240222 87.757628 
L 1143.790861 83.181405 
L 1144.341502 83.181405 
L 1144.892142 87.757628 
L 1145.442782 83.181405 
L 1145.993422 87.757628 
L 1146.544062 83.181405 
L 1147.094702 87.757628 
L 1147.645342 87.757628 
L 1148.195982 83.181405 
L 1148.746622 83.181405 
L 1149.297263 87.757628 
L 1149.847903 83.181405 
L 1150.398543 87.757628 
L 1152.601103 87.757628 
L 1153.151743 92.333852 
L 1153.702383 92.333852 
L 1154.253024 96.910075 
L 1154.803663 92.333852 
L 1155.904944 92.333852 
L 1156.455584 96.910075 
L 1158.658144 96.910075 
L 1159.208784 101.486298 
L 1159.759424 101.486298 
L 1160.310065 106.062521 
L 1161.961985 106.062521 
L 1162.512625 110.638744 
L 1163.613905 110.638744 
L 1164.715185 115.214968 
L 1164.715185 119.791191 
L 1165.265825 119.791191 
L 1166.367106 128.943637 
L 1166.917746 128.943637 
L 1169.670946 151.824754 
L 1170.221586 151.824754 
L 1171.322867 156.400977 
L 1171.322867 156.400977 
L 1174.626707 183.858316 
L 1174.626707 188.434539 
L 1175.177347 197.586986 
L 1176.278627 197.586986 
L 1176.278627 202.163209 
L 1176.829268 206.739432 
L 1177.379908 206.739432 
L 1177.930548 211.315656 
L 1178.481188 211.315656 
L 1179.031828 215.891879 
L 1179.582468 215.891879 
L 1180.133108 220.468102 
L 1180.683748 220.468102 
L 1181.234388 225.044325 
L 1181.785029 225.044325 
L 1182.335669 229.620549 
L 1183.436949 229.620549 
L 1183.987589 234.196772 
L 1186.740789 234.196772 
L 1186.740789 234.196772 
L 1187.291429 229.620549 
L 1187.84207 234.196772 
L 1188.39271 229.620549 
L 1189.49399 229.620549 
L 1190.04463 225.044325 
L 1190.59527 225.044325 
L 1191.14591 220.468102 
L 1192.79783 220.468102 
L 1193.348471 225.044325 
L 1196.652311 225.044325 
L 1197.202951 229.620549 
L 1197.753591 229.620549 
L 1198.304231 234.196772 
L 1200.506792 234.196772 
L 1201.057432 238.772995 
L 1202.158712 238.772995 
L 1203.259992 247.925442 
L 1204.361273 247.925442 
L 1204.911913 252.501665 
L 1206.563833 252.501665 
L 1207.114473 257.077888 
L 1207.665113 252.501665 
L 1212.070234 252.501665 
L 1212.620874 243.349218 
L 1213.722154 234.196772 
L 1214.272794 225.044325 
L 1214.823434 220.468102 
L 1215.374075 206.739432 
L 1215.924715 202.163209 
L 1216.475355 193.010763 
L 1217.025995 188.434539 
L 1217.576635 179.282093 
L 1218.677915 170.129647 
L 1219.228555 160.9772 
L 1220.329836 151.824754 
L 1220.880476 142.672307 
L 1221.431116 138.096084 
L 1221.981756 138.096084 
L 1223.083036 128.943637 
L 1224.184316 128.943637 
L 1224.734956 124.367414 
L 1224.734956 119.791191 
L 1225.836236 119.791191 
L 1226.386877 115.214968 
L 1227.488157 115.214968 
L 1228.038797 110.638744 
L 1229.140077 110.638744 
L 1229.690717 106.062521 
L 1230.791997 106.062521 
L 1231.342638 101.486298 
L 1232.994558 101.486298 
L 1233.545198 96.910075 
L 1238.500959 96.910075 
L 1239.051599 92.333852 
L 1245.10864 92.333852 
L 1245.65928 87.757628 
L 1246.20992 92.333852 
L 1246.76056 87.757628 
L 1247.86184 87.757628 
L 1248.412481 92.333852 
L 1249.513761 92.333852 
L 1250.064401 87.757628 
L 1250.615041 92.333852 
L 1252.266961 92.333852 
L 1252.817601 96.910075 
L 1253.368242 96.910075 
L 1253.918882 92.333852 
L 1254.469522 92.333852 
L 1255.020162 96.910075 
L 1260.526563 96.910075 
L 1261.077203 101.486298 
L 1261.627843 101.486298 
L 1262.178483 96.910075 
L 1264.931684 96.910075 
L 1265.482324 92.333852 
L 1267.134244 92.333852 
L 1267.684884 87.757628 
L 1268.786164 87.757628 
L 1269.336804 83.181405 
L 1272.090005 83.181405 
L 1272.640645 78.605182 
L 1278.697686 78.605182 
L 1279.248326 83.181405 
L 1284.204087 83.181405 
L 1284.754727 87.757628 
L 1287.507928 87.757628 
L 1288.058568 92.333852 
L 1288.609208 87.757628 
L 1289.159848 92.333852 
L 1295.767529 92.333852 
L 1296.318169 87.757628 
L 1296.868809 87.757628 
L 1297.41945 92.333852 
L 1297.97009 87.757628 
L 1299.62201 87.757628 
L 1299.62201 92.333852 
L 1299.62201 92.333852 
L 1303.476491 92.333852 
L 1304.027131 96.910075 
L 1304.577771 96.910075 
L 1305.128411 101.486298 
L 1306.229691 101.486298 
L 1306.780331 106.062521 
L 1307.330971 106.062521 
L 1307.881611 110.638744 
L 1308.432252 110.638744 
L 1308.982892 115.214968 
L 1310.634812 115.214968 
L 1310.634812 119.791191 
L 1311.185452 124.367414 
L 1313.938653 124.367414 
L 1314.489293 128.943637 
L 1315.039933 128.943637 
L 1315.590573 124.367414 
L 1317.793133 124.367414 
L 1318.894414 115.214968 
L 1319.995694 115.214968 
L 1320.546334 110.638744 
L 1321.096974 110.638744 
L 1321.647614 106.062521 
L 1323.299534 106.062521 
L 1323.299534 106.062521 
L 1323.850174 101.486298 
L 1326.603375 101.486298 
L 1327.154015 96.910075 
L 1329.356575 96.910075 
L 1329.356575 92.333852 
L 1333.211056 92.333852 
L 1333.761696 87.757628 
L 1336.514897 87.757628 
L 1337.065537 83.181405 
L 1337.065537 87.757628 
L 1339.268097 87.757628 
L 1339.818737 92.333852 
L 1342.571938 92.333852 
L 1342.571938 96.910075 
L 1343.673218 96.910075 
L 1343.673218 92.333852 
L 1344.223858 96.910075 
L 1346.977059 96.910075 
L 1347.527699 101.486298 
L 1350.280899 101.486298 
L 1350.280899 106.062521 
L 1350.831539 106.062521 
L 1351.382179 110.638744 
L 1353.0341 110.638744 
L 1353.58474 106.062521 
L 1354.13538 110.638744 
L 1359.091141 110.638744 
L 1359.641781 106.062521 
L 1364.597542 106.062521 
L 1365.148182 101.486298 
L 1366.800102 101.486298 
L 1367.350742 96.910075 
L 1368.452023 96.910075 
L 1369.002663 101.486298 
L 1369.553303 96.910075 
L 1372.306503 96.910075 
L 1372.857143 92.333852 
L 1375.059704 92.333852 
L 1375.610344 87.757628 
L 1376.160984 87.757628 
L 1376.711624 92.333852 
L 1377.262264 87.757628 
L 1380.015465 87.757628 
L 1380.566105 83.181405 
L 1386.072506 83.181405 
L 1386.623146 87.757628 
L 1387.173786 83.181405 
L 1387.724426 87.757628 
L 1388.275066 87.757628 
L 1388.825706 83.181405 
L 1389.376346 87.757628 
L 1393.230827 87.757628 
L 1393.781467 83.181405 
L 1394.332107 83.181405 
L 1394.882747 87.757628 
L 1396.534668 87.757628 
L 1397.085308 83.181405 
L 1397.635948 87.757628 
L 1398.186588 87.757628 
L 1398.737228 83.181405 
L 1399.287868 87.757628 
L 1404.243629 87.757628 
L 1404.794269 83.181405 
L 1405.344909 83.181405 
L 1405.895549 87.757628 
L 1406.446189 83.181405 
L 1406.99683 83.181405 
L 1407.54747 87.757628 
L 1408.09811 83.181405 
L 1408.64875 87.757628 
L 1409.19939 87.757628 
L 1409.75003 83.181405 
L 1412.503231 83.181405 
L 1413.053871 87.757628 
L 1414.155151 83.181405 
L 1414.155151 83.181405 
L 1414.705791 83.181405 
L 1415.256431 87.757628 
L 1415.807071 87.757628 
L 1416.357711 92.333852 
L 1416.908351 87.757628 
L 1417.458991 92.333852 
L 1419.110912 92.333852 
L 1419.661552 96.910075 
L 1422.414752 96.910075 
L 1422.965392 101.486298 
L 1423.516033 96.910075 
L 1424.066673 96.910075 
L 1424.617313 101.486298 
L 1425.167953 96.910075 
L 1425.718593 96.910075 
L 1426.269233 92.333852 
L 1426.819873 92.333852 
L 1427.370513 87.757628 
L 1427.921153 92.333852 
L 1428.471794 87.757628 
L 1429.573074 87.757628 
L 1430.123714 92.333852 
L 1430.674354 87.757628 
L 1433.427554 87.757628 
L 1433.978194 83.181405 
L 1434.528835 87.757628 
L 1440.035236 87.757628 
L 1440.585876 92.333852 
L 1441.136516 92.333852 
L 1441.687156 87.757628 
L 1443.889716 87.757628 
L 1444.440356 92.333852 
L 1445.541637 83.181405 
L 1446.642917 83.181405 
L 1447.193557 87.757628 
L 1447.744197 83.181405 
L 1449.946758 83.181405 
L 1451.048038 87.757628 
L 1451.048038 83.181405 
L 1451.598678 83.181405 
L 1452.149318 87.757628 
L 1452.699958 83.181405 
L 1453.801238 83.181405 
L 1454.351878 87.757628 
L 1455.453158 87.757628 
L 1455.453158 87.757628 
L 1456.003798 92.333852 
L 1457.655719 92.333852 
L 1458.206359 96.910075 
L 1458.756999 92.333852 
L 1459.307639 101.486298 
L 1460.408919 101.486298 
L 1461.5102 110.638744 
L 1462.61148 110.638744 
L 1463.16212 119.791191 
L 1464.2634 119.791191 
L 1464.81404 124.367414 
L 1465.36468 124.367414 
L 1466.46596 133.519861 
L 1467.567241 151.824754 
L 1468.117881 165.553423 
L 1469.219161 183.858316 
L 1469.769801 202.163209 
L 1470.320441 206.739432 
L 1471.972361 234.196772 
L 1473.624282 247.925442 
L 1474.174922 257.077888 
L 1475.826842 270.806558 
L 1476.377482 270.806558 
L 1477.478762 289.111451 
L 1478.580043 298.263897 
L 1479.130683 298.263897 
L 1479.681323 302.84012 
L 1480.231963 311.992567 
L 1481.333243 321.145013 
L 1482.434523 321.145013 
L 1485.187724 344.02613 
L 1486.839644 344.02613 
L 1487.390284 348.602353 
L 1487.940924 357.754799 
L 1488.491564 357.754799 
L 1489.042205 366.907246 
L 1489.592845 371.483469 
L 1490.143485 371.483469 
L 1490.694125 366.907246 
L 1492.346045 366.907246 
L 1492.346045 366.907246 
L 1493.447325 376.059692 
L 1495.649886 376.059692 
L 1496.751166 385.212139 
L 1499.504367 385.212139 
L 1500.055007 389.788362 
L 1502.808207 389.788362 
L 1503.358847 394.364585 
L 1503.909487 394.364585 
L 1505.010767 403.517032 
L 1505.561407 403.517032 
L 1506.112048 398.940808 
L 1508.314608 398.940808 
L 1508.865248 403.517032 
L 1510.517169 403.517032 
L 1511.067809 398.940808 
L 1511.618449 398.940808 
L 1514.371649 421.821925 
L 1516.57421 421.821925 
L 1517.12485 417.245701 
L 1517.67549 417.245701 
L 1518.22613 421.821925 
L 1518.22613 421.821925 
" clip-path="url(#pc5b8208fe8)" style="fill: none; stroke: #1f77b4; stroke-width: 1.5; stroke-linecap: square"/>
   </g>
   <g id="line2d_36">
    <path d="M 251.203259 476.736603 
L 252.855179 476.736603 
L 254.507099 467.584157 
L 256.70966 467.584157 
L 260.0135 458.43171 
L 262.216061 458.43171 
L 263.317341 421.821925 
L 264.418621 421.821925 
L 265.519901 412.669478 
L 267.722462 412.669478 
L 269.374382 398.940808 
L 269.925022 371.483469 
L 271.026302 371.483469 
L 272.678223 362.331022 
L 276.532703 362.331022 
L 278.735264 348.602353 
L 282.039104 348.602353 
L 284.241665 298.263897 
L 286.994865 298.263897 
L 287.545505 275.382781 
L 289.748066 275.382781 
L 290.298706 261.654111 
L 292.501266 261.654111 
L 293.051906 252.501665 
L 295.805107 252.501665 
L 296.355747 243.349218 
L 297.457027 243.349218 
L 298.007667 238.772995 
L 306.817909 238.772995 
L 307.368549 252.501665 
L 309.020469 252.501665 
L 309.571109 257.077888 
L 311.77367 257.077888 
L 312.32431 275.382781 
L 313.42559 275.382781 
L 313.97623 284.535227 
L 322.235832 284.535227 
L 322.786472 275.382781 
L 324.438392 275.382781 
L 324.989032 247.925442 
L 327.742233 247.925442 
L 328.292873 243.349218 
L 330.495433 243.349218 
L 331.046073 225.044325 
L 333.799274 225.044325 
L 334.349914 206.739432 
L 336.001834 206.739432 
L 336.552474 193.010763 
L 339.305675 193.010763 
L 339.856315 183.858316 
L 341.508235 183.858316 
L 342.058875 170.129647 
L 343.710796 170.129647 
L 344.261436 165.553423 
L 351.970397 165.553423 
L 352.521037 160.9772 
L 355.274238 160.9772 
L 355.824878 156.400977 
L 357.476798 156.400977 
L 358.027438 160.9772 
L 360.780639 160.9772 
L 361.331279 147.24853 
L 366.28704 147.24853 
L 366.83768 133.519861 
L 371.793441 133.519861 
L 372.344081 128.943637 
L 373.996001 128.943637 
L 374.546641 133.519861 
L 382.255603 133.519861 
L 382.806243 151.824754 
L 385.008803 151.824754 
L 385.559443 160.9772 
L 387.762004 160.9772 
L 388.312644 151.824754 
L 393.819045 151.824754 
L 394.369685 142.672307 
L 401.528006 142.672307 
L 402.078646 133.519861 
L 407.585047 133.519861 
L 408.135687 138.096084 
L 409.787607 138.096084 
L 410.338248 142.672307 
L 412.540808 142.672307 
L 413.091448 151.824754 
L 415.294009 151.824754 
L 416.945929 142.672307 
L 418.597849 142.672307 
L 419.148489 138.096084 
L 421.35105 138.096084 
L 421.90169 147.24853 
L 423.00297 147.24853 
L 423.55361 142.672307 
L 425.756171 142.672307 
L 426.30681 133.519861 
L 428.509371 133.519861 
L 429.060011 128.943637 
L 435.117052 128.943637 
L 435.667692 119.791191 
L 437.319613 119.791191 
L 437.870253 110.638744 
L 440.072813 110.638744 
L 440.623453 119.791191 
L 445.579214 119.791191 
L 446.129854 133.519861 
L 448.332415 133.519861 
L 448.883055 138.096084 
L 455.490736 151.824754 
L 456.592016 151.824754 
L 457.142656 160.9772 
L 459.895857 160.9772 
L 460.446497 183.858316 
L 462.098417 183.858316 
L 462.649057 174.70587 
L 465.402258 174.70587 
L 465.952898 170.129647 
L 468.706098 170.129647 
L 469.256738 160.9772 
L 471.459299 160.9772 
L 472.009939 147.24853 
L 474.212499 147.24853 
L 474.763139 133.519861 
L 489.630422 133.519861 
L 490.181062 142.672307 
L 492.934263 142.672307 
L 493.484903 147.24853 
L 495.136823 147.24853 
L 495.687463 151.824754 
L 500.643224 151.824754 
L 501.193864 147.24853 
L 503.396425 147.24853 
L 503.947065 133.519861 
L 509.453466 133.519861 
L 510.004106 128.943637 
L 511.656026 128.943637 
L 512.206666 124.367414 
L 517.162427 124.367414 
L 517.713067 119.791191 
L 522.118188 119.791191 
L 525.972669 110.638744 
L 533.68163 110.638744 
L 534.23227 115.214968 
L 542.491872 115.214968 
L 580.486039 394.364585 
L 581.587319 394.364585 
L 582.137959 380.635915 
L 583.789879 380.635915 
L 584.340519 371.483469 
L 585.99244 371.483469 
L 586.54308 266.230335 
L 589.29628 266.230335 
L 589.84692 225.044325 
L 592.049481 225.044325 
L 592.600121 179.282093 
L 594.252041 179.282093 
L 594.802681 151.824754 
L 597.555882 151.824754 
L 598.106522 133.519861 
L 599.758442 133.519861 
L 600.309082 124.367414 
L 603.062283 124.367414 
L 603.612923 115.214968 
L 605.264843 115.214968 
L 605.815483 119.791191 
L 616.277645 119.791191 
L 616.828285 124.367414 
L 619.581486 124.367414 
L 620.132126 119.791191 
L 621.784046 119.791191 
L 622.334686 106.062521 
L 625.087887 106.062521 
L 625.638527 110.638744 
L 638.303249 110.638744 
L 638.853889 106.062521 
L 658.126293 106.062521 
L 658.676933 110.638744 
L 665.835254 110.638744 
L 666.385894 106.062521 
L 671.341655 106.062521 
L 671.892295 101.486298 
L 674.645496 101.486298 
L 675.196136 106.062521 
L 677.398696 106.062521 
L 677.949336 101.486298 
L 680.151897 101.486298 
L 680.702537 106.062521 
L 685.658298 106.062521 
L 686.208938 110.638744 
L 687.860858 110.638744 
L 688.411498 115.214968 
L 691.164699 115.214968 
L 691.715339 128.943637 
L 693.917899 128.943637 
L 694.468539 133.519861 
L 701.626861 133.519861 
L 702.177501 128.943637 
L 703.829421 128.943637 
L 704.380061 119.791191 
L 707.133262 119.791191 
L 707.683902 115.214968 
L 715.943503 115.214968 
L 716.494143 128.943637 
L 718.146064 128.943637 
L 718.696704 133.519861 
L 723.652465 133.519861 
L 724.203105 128.943637 
L 726.956305 128.943637 
L 727.506945 124.367414 
L 729.158866 124.367414 
L 729.709506 119.791191 
L 732.462707 119.791191 
L 733.013347 106.062521 
L 734.665267 106.062521 
L 735.215907 101.486298 
L 737.969107 101.486298 
L 738.519747 92.333852 
L 746.228709 92.333852 
L 746.779349 101.486298 
L 748.431269 101.486298 
L 748.981909 106.062521 
L 751.73511 106.062521 
L 752.28575 115.214968 
L 753.93767 115.214968 
L 754.48831 124.367414 
L 759.444071 124.367414 
L 759.994711 128.943637 
L 765.501112 128.943637 
L 766.051753 124.367414 
L 767.703673 124.367414 
L 768.254313 115.214968 
L 771.007513 115.214968 
L 771.558154 106.062521 
L 782.020316 106.062521 
L 782.570956 96.910075 
L 783.672236 96.910075 
L 784.222876 101.486298 
L 790.830557 101.486298 
L 791.381197 106.062521 
L 792.482477 106.062521 
L 793.033118 110.638744 
L 797.988878 110.638744 
L 798.539518 115.214968 
L 801.292719 115.214968 
L 801.843359 119.791191 
L 806.79912 119.791191 
L 807.34976 115.214968 
L 809.00168 115.214968 
L 809.55232 106.062521 
L 815.058722 106.062521 
L 815.609362 115.214968 
L 820.565123 115.214968 
L 821.115763 156.400977 
L 823.318323 156.400977 
L 823.868963 165.553423 
L 825.520883 165.553423 
L 826.071524 179.282093 
L 828.824724 179.282093 
L 829.375364 170.129647 
L 831.027284 170.129647 
L 831.577925 165.553423 
L 834.331125 165.553423 
L 834.881765 151.824754 
L 837.084326 151.824754 
L 837.634966 133.519861 
L 840.388166 133.519861 
L 840.938806 110.638744 
L 842.040087 110.638744 
L 842.590727 106.062521 
L 850.299688 106.062521 
L 850.850328 101.486298 
L 852.502248 101.486298 
L 853.052889 106.062521 
L 859.109929 106.062521 
L 859.66057 115.214968 
L 861.31249 115.214968 
L 861.86313 124.367414 
L 865.717611 124.367414 
L 866.268251 133.519861 
L 869.021451 133.519861 
L 869.572091 151.824754 
L 872.325292 151.824754 
L 872.875932 202.163209 
L 875.629133 202.163209 
L 876.179773 229.620549 
L 882.236814 229.620549 
L 882.787454 252.501665 
L 885.540654 252.501665 
L 886.091295 261.654111 
L 887.743215 261.654111 
L 888.293855 270.806558 
L 889.395135 270.806558 
L 889.945775 279.959004 
L 894.901536 279.959004 
L 895.452176 270.806558 
L 897.654737 270.806558 
L 898.205377 257.077888 
L 899.857297 257.077888 
L 900.407937 220.468102 
L 903.161138 220.468102 
L 903.711778 188.434539 
L 905.363698 188.434539 
L 905.914338 165.553423 
L 908.667539 165.553423 
L 909.218179 124.367414 
L 910.870099 124.367414 
L 911.420739 115.214968 
L 914.17394 115.214968 
L 914.72458 110.638744 
L 916.92714 110.638744 
L 917.47778 106.062521 
L 919.1297 106.062521 
L 919.680341 101.486298 
L 922.433541 101.486298 
L 922.984181 96.910075 
L 925.737382 96.910075 
L 926.288022 101.486298 
L 930.693143 101.486298 
L 931.243783 106.062521 
L 936.199544 106.062521 
L 936.750184 115.214968 
L 938.402104 115.214968 
L 938.952744 128.943637 
L 941.705945 128.943637 
L 942.256585 147.24853 
L 944.459145 147.24853 
L 945.009785 160.9772 
L 947.212346 160.9772 
L 947.762986 170.129647 
L 948.313626 170.129647 
L 951.066826 211.315656 
L 952.168107 211.315656 
L 952.718747 215.891879 
L 954.921307 215.891879 
L 955.471947 238.772995 
L 958.225148 238.772995 
L 958.775788 247.925442 
L 960.427708 247.925442 
L 960.978348 252.501665 
L 963.731549 252.501665 
L 964.282189 225.044325 
L 965.934109 225.044325 
L 966.484749 174.70587 
L 969.23795 174.70587 
L 969.78859 160.9772 
L 971.99115 160.9772 
L 972.54179 124.367414 
L 974.744351 124.367414 
L 975.294991 119.791191 
L 976.946911 119.791191 
L 977.497551 106.062521 
L 980.250752 106.062521 
L 980.801392 96.910075 
L 982.453312 96.910075 
L 983.003952 92.333852 
L 987.959713 92.333852 
L 988.510353 87.757628 
L 990.162273 87.757628 
L 990.712914 92.333852 
L 996.769955 92.333852 
L 997.320595 96.910075 
L 1001.175076 96.910075 
L 1001.725716 106.062521 
L 1005.580196 106.062521 
L 1006.130836 124.367414 
L 1008.333397 124.367414 
L 1008.884037 156.400977 
L 1010.535957 156.400977 
L 1011.086597 160.9772 
L 1013.839798 160.9772 
L 1014.390438 193.010763 
L 1016.042358 193.010763 
L 1016.592998 206.739432 
L 1018.795559 206.739432 
L 1019.346199 220.468102 
L 1020.998119 220.468102 
L 1021.548759 211.315656 
L 1025.40324 211.315656 
L 1025.95388 193.010763 
L 1027.6058 193.010763 
L 1028.15644 151.824754 
L 1029.257721 151.824754 
L 1029.808361 133.519861 
L 1033.112201 133.519861 
L 1033.662841 119.791191 
L 1035.865402 119.791191 
L 1036.416042 115.214968 
L 1038.067962 115.214968 
L 1038.618602 101.486298 
L 1043.023723 101.486298 
L 1043.574363 87.757628 
L 1048.530124 87.757628 
L 1049.080764 83.181405 
L 1051.833965 83.181405 
L 1052.384605 87.757628 
L 1054.036525 87.757628 
L 1054.587165 83.181405 
L 1057.340366 83.181405 
L 1057.891006 87.757628 
L 1059.542926 87.757628 
L 1060.093566 92.333852 
L 1062.296127 92.333852 
L 1062.846767 96.910075 
L 1066.701247 96.910075 
L 1067.251887 92.333852 
L 1070.005088 92.333852 
L 1070.555728 96.910075 
L 1073.308929 96.910075 
L 1073.859569 92.333852 
L 1081.56853 92.333852 
L 1082.11917 96.910075 
L 1087.625571 96.910075 
L 1088.176211 83.181405 
L 1099.739654 83.181405 
L 1100.290294 92.333852 
L 1101.942214 92.333852 
L 1102.492854 115.214968 
L 1104.144774 115.214968 
L 1104.695414 119.791191 
L 1107.448615 119.791191 
L 1107.999255 142.672307 
L 1109.100535 142.672307 
L 1109.651175 160.9772 
L 1111.853736 160.9772 
L 1112.404376 165.553423 
L 1115.157576 165.553423 
L 1115.708216 174.70587 
L 1120.663977 174.70587 
L 1121.214617 160.9772 
L 1122.866538 160.9772 
L 1123.417178 142.672307 
L 1126.170378 142.672307 
L 1126.721018 115.214968 
L 1128.372939 115.214968 
L 1128.923579 106.062521 
L 1133.87934 106.062521 
L 1134.42998 96.910075 
L 1136.0819 96.910075 
L 1136.63254 92.333852 
L 1139.385741 92.333852 
L 1139.936381 87.757628 
L 1148.195982 87.757628 
L 1148.746622 83.181405 
L 1150.398543 83.181405 
L 1150.949183 87.757628 
L 1157.006224 87.757628 
L 1157.556864 92.333852 
L 1165.265825 92.333852 
L 1165.816465 106.062521 
L 1166.917746 106.062521 
L 1167.468386 110.638744 
L 1174.626707 110.638744 
L 1175.177347 147.24853 
L 1181.234388 147.24853 
L 1181.785029 211.315656 
L 1183.987589 211.315656 
L 1184.538229 225.044325 
L 1186.190149 225.044325 
L 1186.740789 234.196772 
L 1191.69655 234.196772 
L 1192.24719 229.620549 
L 1195.000391 229.620549 
L 1195.551031 220.468102 
L 1198.304231 220.468102 
L 1198.854872 225.044325 
L 1203.810632 225.044325 
L 1204.361273 238.772995 
L 1205.462553 238.772995 
L 1206.013193 247.925442 
L 1207.665113 247.925442 
L 1208.215753 252.501665 
L 1217.025995 252.501665 
L 1217.576635 211.315656 
L 1219.228555 211.315656 
L 1219.779195 174.70587 
L 1221.981756 174.70587 
L 1222.532396 170.129647 
L 1225.285596 170.129647 
L 1225.836236 142.672307 
L 1227.488157 142.672307 
L 1228.038797 119.791191 
L 1234.095838 119.791191 
L 1234.646478 110.638744 
L 1235.747758 110.638744 
L 1236.298398 106.062521 
L 1239.602239 106.062521 
L 1240.152879 92.333852 
L 1250.064401 92.333852 
L 1250.615041 87.757628 
L 1257.773362 87.757628 
L 1258.324002 96.910075 
L 1268.235524 96.910075 
L 1268.786164 92.333852 
L 1270.988725 92.333852 
L 1271.539365 87.757628 
L 1275.944486 87.757628 
L 1276.495126 78.605182 
L 1283.102807 78.605182 
L 1283.653447 83.181405 
L 1288.609208 83.181405 
L 1289.159848 87.757628 
L 1293.564969 87.757628 
L 1294.115609 92.333852 
L 1296.868809 92.333852 
L 1297.41945 87.757628 
L 1300.72329 87.757628 
L 1301.27393 92.333852 
L 1307.881611 92.333852 
L 1308.432252 96.910075 
L 1310.634812 96.910075 
L 1311.185452 101.486298 
L 1312.837372 101.486298 
L 1313.388013 119.791191 
L 1316.141213 119.791191 
L 1316.691853 124.367414 
L 1321.647614 124.367414 
L 1322.198254 110.638744 
L 1327.154015 110.638744 
L 1327.704655 106.062521 
L 1329.356575 106.062521 
L 1329.907216 96.910075 
L 1332.660416 96.910075 
L 1333.211056 87.757628 
L 1345.875778 87.757628 
L 1346.426418 92.333852 
L 1348.628979 92.333852 
L 1349.179619 96.910075 
L 1352.48346 96.910075 
L 1353.0341 101.486298 
L 1354.13538 101.486298 
L 1354.68602 106.062521 
L 1367.901382 106.062521 
L 1368.452023 101.486298 
L 1373.958423 101.486298 
L 1374.509064 92.333852 
L 1382.218025 92.333852 
L 1382.768665 83.181405 
L 1389.926987 83.181405 
L 1390.477627 87.757628 
L 1409.75003 87.757628 
L 1410.30067 83.181405 
L 1417.458991 83.181405 
L 1418.009632 87.757628 
L 1423.516033 87.757628 
L 1424.066673 96.910075 
L 1429.022434 96.910075 
L 1429.573074 92.333852 
L 1431.224994 92.333852 
L 1431.775634 87.757628 
L 1434.528835 87.757628 
L 1435.079475 83.181405 
L 1437.282035 83.181405 
L 1437.832675 87.757628 
L 1451.048038 87.757628 
L 1451.598678 78.605182 
L 1456.554439 78.605182 
L 1457.105079 87.757628 
L 1463.71276 87.757628 
L 1463.71276 87.757628 
" clip-path="url(#pc5b8208fe8)" style="fill: none; stroke: #ff7f0e; stroke-width: 1.5; stroke-linecap: square"/>
   </g>
   <g id="patch_3">
    <path d="M 89.562857 611.964 
L 89.562857 53.207143 
" style="fill: none; stroke: #000000; stroke-width: 0.8; stroke-linejoin: miter; stroke-linecap: square"/>
   </g>
   <g id="patch_4">
    <path d="M 1586.257714 611.964 
L 1586.257714 53.207143 
" style="fill: none; stroke: #000000; stroke-width: 0.8; stroke-linejoin: miter; stroke-linecap: square"/>
   </g>
   <g id="patch_5">
    <path d="M 89.562857 611.964 
L 1586.257714 611.964 
" style="fill: none; stroke: #000000; stroke-width: 0.8; stroke-linejoin: miter; stroke-linecap: square"/>
   </g>
   <g id="patch_6">
    <path d="M 89.562857 53.207143 
L 1586.257714 53.207143 
" style="fill: none; stroke: #000000; stroke-width: 0.8; stroke-linejoin: miter; stroke-linecap: square"/>
   </g>
   <g id="text_21">
    <!-- Heart Rate Comparison -->
    <g transform="translate(767.717786 47.207143) scale(0.12 -0.12)">
     <defs>
      <path id="DejaVuSans-43" d="M 4122 4306 
L 4122 3641 
Q 3803 3938 3442 4084 
Q 3081 4231 2675 4231 
Q 1875 4231 1450 3742 
Q 1025 3253 1025 2328 
Q 1025 1406 1450 917 
Q 1875 428 2675 428 
Q 3081 428 3442 575 
Q 3803 722 4122 1019 
L 4122 359 
Q 3791 134 3420 21 
Q 3050 -91 2638 -91 
Q 1578 -91 968 557 
Q 359 1206 359 2328 
Q 359 3453 968 4101 
Q 1578 4750 2638 4750 
Q 3056 4750 3426 4639 
Q 3797 4528 4122 4306 
z
" transform="scale(0.015625)"/>
      <path id="DejaVuSans-6f" d="M 1959 3097 
Q 1497 3097 1228 2736 
Q 959 2375 959 1747 
Q 959 1119 1226 758 
Q 1494 397 1959 397 
Q 2419 397 2687 759 
Q 2956 1122 2956 1747 
Q 2956 2369 2687 2733 
Q 2419 3097 1959 3097 
z
M 1959 3584 
Q 2709 3584 3137 3096 
Q 3566 2609 3566 1747 
Q 3566 888 3137 398 
Q 2709 -91 1959 -91 
Q 1206 -91 779 398 
Q 353 888 353 1747 
Q 353 2609 779 3096 
Q 1206 3584 1959 3584 
z
" transform="scale(0.015625)"/>
      <path id="DejaVuSans-73" d="M 2834 3397 
L 2834 2853 
Q 2591 2978 2328 3040 
Q 2066 3103 1784 3103 
Q 1356 3103 1142 2972 
Q 928 2841 928 2578 
Q 928 2378 1081 2264 
Q 1234 2150 1697 2047 
L 1894 2003 
Q 2506 1872 2764 1633 
Q 3022 1394 3022 966 
Q 3022 478 2636 193 
Q 2250 -91 1575 -91 
Q 1294 -91 989 -36 
Q 684 19 347 128 
L 347 722 
Q 666 556 975 473 
Q 1284 391 1588 391 
Q 1994 391 2212 530 
Q 2431 669 2431 922 
Q 2431 1156 2273 1281 
Q 2116 1406 1581 1522 
L 1381 1569 
Q 847 1681 609 1914 
Q 372 2147 372 2553 
Q 372 3047 722 3315 
Q 1072 3584 1716 3584 
Q 2034 3584 2315 3537 
Q 2597 3491 2834 3397 
z
" transform="scale(0.015625)"/>
      <path id="DejaVuSans-6e" d="M 3513 2113 
L 3513 0 
L 2938 0 
L 2938 2094 
Q 2938 2591 2744 2837 
Q 2550 3084 2163 3084 
Q 1697 3084 1428 2787 
Q 1159 2491 1159 1978 
L 1159 0 
L 581 0 
L 581 3500 
L 1159 3500 
L 1159 2956 
Q 1366 3272 1645 3428 
Q 1925 3584 2291 3584 
Q 2894 3584 3203 3211 
Q 3513 2838 3513 2113 
z
" transform="scale(0.015625)"/>
     </defs>
     <use xlink:href="#DejaVuSans-48"/>
     <use xlink:href="#DejaVuSans-65" x="75.195312"/>
     <use xlink:href="#DejaVuSans-61" x="136.71875"/>
     <use xlink:href="#DejaVuSans-72" x="197.998047"/>
     <use xlink:href="#DejaVuSans-74" x="239.111328"/>
     <use xlink:href="#DejaVuSans-20" x="278.320312"/>
     <use xlink:href="#DejaVuSans-52" x="310.107422"/>
     <use xlink:href="#DejaVuSans-61" x="377.339844"/>
     <use xlink:href="#DejaVuSans-74" x="438.619141"/>
     <use xlink:href="#DejaVuSans-65" x="477.828125"/>
     <use xlink:href="#DejaVuSans-20" x="539.351562"/>
     <use xlink:href="#DejaVuSans-43" x="571.138672"/>
     <use xlink:href="#DejaVuSans-6f" x="640.962891"/>
     <use xlink:href="#DejaVuSans-6d" x="702.144531"/>
     <use xlink:href="#DejaVuSans-70" x="799.556641"/>
     <use xlink:href="#DejaVuSans-61" x="863.033203"/>
     <use xlink:href="#DejaVuSans-72" x="924.3125"/>
     <use xlink:href="#DejaVuSans-69" x="965.425781"/>
     <use xlink:href="#DejaVuSans-73" x="993.208984"/>
     <use xlink:href="#DejaVuSans-6f" x="1045.308594"/>
     <use xlink:href="#DejaVuSans-6e" x="1106.490234"/>
    </g>
   </g>
   <g id="legend_1">
    <g id="patch_7">
     <path d="M 96.562857 90.563393 
L 333.428482 90.563393 
Q 335.428482 90.563393 335.428482 88.563393 
L 335.428482 60.207143 
Q 335.428482 58.207143 333.428482 58.207143 
L 96.562857 58.207143 
Q 94.562857 58.207143 94.562857 60.207143 
L 94.562857 88.563393 
Q 94.562857 90.563393 96.562857 90.563393 
z
" style="fill: #ffffff; opacity: 0.8; stroke: #cccccc; stroke-linejoin: miter"/>
    </g>
    <g id="line2d_37">
     <path d="M 98.562857 66.30558 
L 108.562857 66.30558 
L 118.562857 66.30558 
" style="fill: none; stroke: #1f77b4; stroke-width: 1.5; stroke-linecap: square"/>
    </g>
    <g id="text_22">
     <!-- Run 00.30 - road - 30 C - Polar H10 -->
     <g transform="translate(126.562857 69.80558) scale(0.1 -0.1)">
      <defs>
       <path id="DejaVuSans-75" d="M 544 1381 
L 544 3500 
L 1119 3500 
L 1119 1403 
Q 1119 906 1312 657 
Q 1506 409 1894 409 
Q 2359 409 2629 706 
Q 2900 1003 2900 1516 
L 2900 3500 
L 3475 3500 
L 3475 0 
L 2900 0 
L 2900 538 
Q 2691 219 2414 64 
Q 2138 -91 1772 -91 
Q 1169 -91 856 284 
Q 544 659 544 1381 
z
M 1991 3584 
L 1991 3584 
z
" transform="scale(0.015625)"/>
       <path id="DejaVuSans-2e" d="M 684 794 
L 1344 794 
L 1344 0 
L 684 0 
L 684 794 
z
" transform="scale(0.015625)"/>
       <path id="DejaVuSans-64" d="M 2906 2969 
L 2906 4863 
L 3481 4863 
L 3481 0 
L 2906 0 
L 2906 525 
Q 2725 213 2448 61 
Q 2172 -91 1784 -91 
Q 1150 -91 751 415 
Q 353 922 353 1747 
Q 353 2572 751 3078 
Q 1150 3584 1784 3584 
Q 2172 3584 2448 3432 
Q 2725 3281 2906 2969 
z
M 947 1747 
Q 947 1113 1208 752 
Q 1469 391 1925 391 
Q 2381 391 2643 752 
Q 2906 1113 2906 1747 
Q 2906 2381 2643 2742 
Q 2381 3103 1925 3103 
Q 1469 3103 1208 2742 
Q 947 2381 947 1747 
z
" transform="scale(0.015625)"/>
       <path id="DejaVuSans-50" d="M 1259 4147 
L 1259 2394 
L 2053 2394 
Q 2494 2394 2734 2622 
Q 2975 2850 2975 3272 
Q 2975 3691 2734 3919 
Q 2494 4147 2053 4147 
L 1259 4147 
z
M 628 4666 
L 2053 4666 
Q 2838 4666 3239 4311 
Q 3641 3956 3641 3272 
Q 3641 2581 3239 2228 
Q 2838 1875 2053 1875 
L 1259 1875 
L 1259 0 
L 628 0 
L 628 4666 
z
" transform="scale(0.015625)"/>
       <path id="DejaVuSans-6c" d="M 603 4863 
L 1178 4863 
L 1178 0 
L 603 0 
L 603 4863 
z
" transform="scale(0.015625)"/>
      </defs>
      <use xlink:href="#DejaVuSans-52"/>
      <use xlink:href="#DejaVuSans-75" x="64.982422"/>
      <use xlink:href="#DejaVuSans-6e" x="128.361328"/>
      <use xlink:href="#DejaVuSans-20" x="191.740234"/>
      <use xlink:href="#DejaVuSans-30" x="223.527344"/>
      <use xlink:href="#DejaVuSans-30" x="287.150391"/>
      <use xlink:href="#DejaVuSans-2e" x="350.773438"/>
      <use xlink:href="#DejaVuSans-33" x="382.560547"/>
      <use xlink:href="#DejaVuSans-30" x="446.183594"/>
      <use xlink:href="#DejaVuSans-20" x="509.806641"/>
      <use xlink:href="#DejaVuSans-2d" x="541.59375"/>
      <use xlink:href="#DejaVuSans-20" x="577.677734"/>
      <use xlink:href="#DejaVuSans-72" x="609.464844"/>
      <use xlink:href="#DejaVuSans-6f" x="648.328125"/>
      <use xlink:href="#DejaVuSans-61" x="709.509766"/>
      <use xlink:href="#DejaVuSans-64" x="770.789062"/>
      <use xlink:href="#DejaVuSans-20" x="834.265625"/>
      <use xlink:href="#DejaVuSans-2d" x="866.052734"/>
      <use xlink:href="#DejaVuSans-20" x="902.136719"/>
      <use xlink:href="#DejaVuSans-33" x="933.923828"/>
      <use xlink:href="#DejaVuSans-30" x="997.546875"/>
      <use xlink:href="#DejaVuSans-20" x="1061.169922"/>
      <use xlink:href="#DejaVuSans-43" x="1092.957031"/>
      <use xlink:href="#DejaVuSans-20" x="1162.78125"/>
      <use xlink:href="#DejaVuSans-2d" x="1194.568359"/>
      <use xlink:href="#DejaVuSans-20" x="1230.652344"/>
      <use xlink:href="#DejaVuSans-50" x="1262.439453"/>
      <use xlink:href="#DejaVuSans-6f" x="1319.117188"/>
      <use xlink:href="#DejaVuSans-6c" x="1380.298828"/>
      <use xlink:href="#DejaVuSans-61" x="1408.082031"/>
      <use xlink:href="#DejaVuSans-72" x="1469.361328"/>
      <use xlink:href="#DejaVuSans-20" x="1510.474609"/>
      <use xlink:href="#DejaVuSans-48" x="1542.261719"/>
      <use xlink:href="#DejaVuSans-31" x="1617.457031"/>
      <use xlink:href="#DejaVuSans-30" x="1681.080078"/>
     </g>
    </g>
    <g id="line2d_38">
     <path d="M 98.562857 80.983705 
L 108.562857 80.983705 
L 118.562857 80.983705 
" style="fill: none; stroke: #ff7f0e; stroke-width: 1.5; stroke-linecap: square"/>
    </g>
    <g id="text_23">
     <!-- Run 00.30 - road - 30 C - Apple Watch SE -->
     <g transform="translate(126.562857 84.483705) scale(0.1 -0.1)">
      <defs>
       <path id="DejaVuSans-41" d="M 2188 4044 
L 1331 1722 
L 3047 1722 
L 2188 4044 
z
M 1831 4666 
L 2547 4666 
L 4325 0 
L 3669 0 
L 3244 1197 
L 1141 1197 
L 716 0 
L 50 0 
L 1831 4666 
z
" transform="scale(0.015625)"/>
       <path id="DejaVuSans-57" d="M 213 4666 
L 850 4666 
L 1831 722 
L 2809 4666 
L 3519 4666 
L 4500 722 
L 5478 4666 
L 6119 4666 
L 4947 0 
L 4153 0 
L 3169 4050 
L 2175 0 
L 1381 0 
L 213 4666 
z
" transform="scale(0.015625)"/>
       <path id="DejaVuSans-63" d="M 3122 3366 
L 3122 2828 
Q 2878 2963 2633 3030 
Q 2388 3097 2138 3097 
Q 1578 3097 1268 2742 
Q 959 2388 959 1747 
Q 959 1106 1268 751 
Q 1578 397 2138 397 
Q 2388 397 2633 464 
Q 2878 531 3122 666 
L 3122 134 
Q 2881 22 2623 -34 
Q 2366 -91 2075 -91 
Q 1284 -91 818 406 
Q 353 903 353 1747 
Q 353 2603 823 3093 
Q 1294 3584 2113 3584 
Q 2378 3584 2631 3529 
Q 2884 3475 3122 3366 
z
" transform="scale(0.015625)"/>
       <path id="DejaVuSans-68" d="M 3513 2113 
L 3513 0 
L 2938 0 
L 2938 2094 
Q 2938 2591 2744 2837 
Q 2550 3084 2163 3084 
Q 1697 3084 1428 2787 
Q 1159 2491 1159 1978 
L 1159 0 
L 581 0 
L 581 4863 
L 1159 4863 
L 1159 2956 
Q 1366 3272 1645 3428 
Q 1925 3584 2291 3584 
Q 2894 3584 3203 3211 
Q 3513 2838 3513 2113 
z
" transform="scale(0.015625)"/>
       <path id="DejaVuSans-53" d="M 3425 4513 
L 3425 3897 
Q 3066 4069 2747 4153 
Q 2428 4238 2131 4238 
Q 1616 4238 1336 4038 
Q 1056 3838 1056 3469 
Q 1056 3159 1242 3001 
Q 1428 2844 1947 2747 
L 2328 2669 
Q 3034 2534 3370 2195 
Q 3706 1856 3706 1288 
Q 3706 609 3251 259 
Q 2797 -91 1919 -91 
Q 1588 -91 1214 -16 
Q 841 59 441 206 
L 441 856 
Q 825 641 1194 531 
Q 1563 422 1919 422 
Q 2459 422 2753 634 
Q 3047 847 3047 1241 
Q 3047 1584 2836 1778 
Q 2625 1972 2144 2069 
L 1759 2144 
Q 1053 2284 737 2584 
Q 422 2884 422 3419 
Q 422 4038 858 4394 
Q 1294 4750 2059 4750 
Q 2388 4750 2728 4690 
Q 3069 4631 3425 4513 
z
" transform="scale(0.015625)"/>
       <path id="DejaVuSans-45" d="M 628 4666 
L 3578 4666 
L 3578 4134 
L 1259 4134 
L 1259 2753 
L 3481 2753 
L 3481 2222 
L 1259 2222 
L 1259 531 
L 3634 531 
L 3634 0 
L 628 0 
L 628 4666 
z
" transform="scale(0.015625)"/>
      </defs>
      <use xlink:href="#DejaVuSans-52"/>
      <use xlink:href="#DejaVuSans-75" x="64.982422"/>
      <use xlink:href="#DejaVuSans-6e" x="128.361328"/>
      <use xlink:href="#DejaVuSans-20" x="191.740234"/>
      <use xlink:href="#DejaVuSans-30" x="223.527344"/>
      <use xlink:href="#DejaVuSans-30" x="287.150391"/>
      <use xlink:href="#DejaVuSans-2e" x="350.773438"/>
      <use xlink:href="#DejaVuSans-33" x="382.560547"/>
      <use xlink:href="#DejaVuSans-30" x="446.183594"/>
      <use xlink:href="#DejaVuSans-20" x="509.806641"/>
      <use xlink:href="#DejaVuSans-2d" x="541.59375"/>
      <use xlink:href="#DejaVuSans-20" x="577.677734"/>
      <use xlink:href="#DejaVuSans-72" x="609.464844"/>
      <use xlink:href="#DejaVuSans-6f" x="648.328125"/>
      <use xlink:href="#DejaVuSans-61" x="709.509766"/>
      <use xlink:href="#DejaVuSans-64" x="770.789062"/>
      <use xlink:href="#DejaVuSans-20" x="834.265625"/>
      <use xlink:href="#DejaVuSans-2d" x="866.052734"/>
      <use xlink:href="#DejaVuSans-20" x="902.136719"/>
      <use xlink:href="#DejaVuSans-33" x="933.923828"/>
      <use xlink:href="#DejaVuSans-30" x="997.546875"/>
      <use xlink:href="#DejaVuSans-20" x="1061.169922"/>
      <use xlink:href="#DejaVuSans-43" x="1092.957031"/>
      <use xlink:href="#DejaVuSans-20" x="1162.78125"/>
      <use xlink:href="#DejaVuSans-2d" x="1194.568359"/>
      <use xlink:href="#DejaVuSans-20" x="1230.652344"/>
      <use xlink:href="#DejaVuSans-41" x="1262.439453"/>
      <use xlink:href="#DejaVuSans-70" x="1330.847656"/>
      <use xlink:href="#DejaVuSans-70" x="1394.324219"/>
      <use xlink:href="#DejaVuSans-6c" x="1457.800781"/>
      <use xlink:href="#DejaVuSans-65" x="1485.583984"/>
      <use xlink:href="#DejaVuSans-20" x="1547.107422"/>
      <use xlink:href="#DejaVuSans-57" x="1578.894531"/>
      <use xlink:href="#DejaVuSans-61" x="1671.396484"/>
      <use xlink:href="#DejaVuSans-74" x="1732.675781"/>
      <use xlink:href="#DejaVuSans-63" x="1771.884766"/>
      <use xlink:href="#DejaVuSans-68" x="1826.865234"/>
      <use xlink:href="#DejaVuSans-20" x="1890.244141"/>
      <use xlink:href="#DejaVuSans-53" x="1922.03125"/>
      <use xlink:href="#DejaVuSans-45" x="1985.507812"/>
     </g>
    </g>
   </g>
  </g>
 </g>
 <defs>
  <clipPath id="pc5b8208fe8">
   <rect x="89.562857" y="53.207143" width="1496.694857" height="558.756857"/>
  </clipPath>
 </defs>
</svg>
